<svg t="1708337541849" class="icon" viewBox="0 0 1024 1024" version="1.1" xmlns="http://www.w3.org/2000/svg" p-id="1050" width="200" height="200"><path d="M516.5 852a340.17 340.17 0 1 1 322.09-229.78A25 25 0 1 1 791.3 606a290.81 290.81 0 1 0-68.16 109.71 25 25 0 1 1 35.56 35.15A339.49 339.49 0 0 1 516.5 852z" p-id="1051"></path><path d="M389 480.73a25 25 0 0 1-25-25V382a25 25 0 0 1 50 0v73.73a25 25 0 0 1-25 25zM641 475.43a22.41 22.41 0 0 1-14.38-5.2L589.1 439a30.54 30.54 0 0 1 0-47l36.9-30.55a22.5 22.5 0 1 1 28.73 34.64l-23.5 19.48 24.13 20.06a22.5 22.5 0 0 1-14.4 39.8zM516.74 701.83a196.79 196.79 0 0 1-140.07-58A25 25 0 0 1 412 608.45a148.08 148.08 0 0 0 209.43 0 25 25 0 0 1 35.36 35.36 196.82 196.82 0 0 1-140.05 58.02z" p-id="1052"></path></svg>