<svg height="8775" node-id="1" sillyvg="true" template-height="8775" template-width="11776" version="1.1" viewBox="0 0 11776 8775" width="11776" xmlns="http://www.w3.org/2000/svg" xmlns:xlink="http://www.w3.org/1999/xlink"><defs node-id="169"></defs><path d="M 11776.00 7710.93 L 0.00 7710.93 L 0.00 7716.81 L 11776.00 7716.81 L 11776.00 7710.93 Z" fill="#ebebeb" fill-rule="nonzero" node-id="171" stroke="none" target-height="5.879883" target-width="11776" target-x="0" target-y="7710.93"/><path d="M 1613.78 7935.14 L 1235.54 7935.14 L 1235.54 7941.03 L 1613.78 7941.03 L 1613.78 7935.14 Z" fill="#ebebeb" fill-rule="nonzero" node-id="173" stroke="none" target-height="5.8896484" target-width="378.24" target-x="1235.54" target-y="7935.14"/><path d="M 5291.43 7871.31 L 4030.69 7871.31 L 4030.69 7877.20 L 5291.43 7877.20 L 5291.43 7871.31 Z" fill="#ebebeb" fill-rule="nonzero" node-id="175" stroke="none" target-height="5.8901367" target-width="1260.7402" target-x="4030.69" target-y="7871.31"/><path d="M 2491.10 8153.94 L 1637.34 8153.94 L 1637.34 8159.83 L 2491.10 8159.83 L 2491.10 8153.94 Z" fill="#ebebeb" fill-rule="nonzero" node-id="177" stroke="none" target-height="5.8901367" target-width="853.76013" target-x="1637.34" target-y="8153.94"/><path d="M 9946.72 7868.25 L 8929.51 7868.25 L 8929.51 7874.14 L 9946.72 7874.14 L 9946.72 7868.25 Z" fill="#ebebeb" fill-rule="nonzero" node-id="179" stroke="none" target-height="5.8901367" target-width="1017.20996" target-x="8929.51" target-y="7868.25"/><path d="M 10305.60 7868.25 L 10156.60 7868.25 L 10156.60 7874.14 L 10305.60 7874.14 L 10305.60 7868.25 Z" fill="#ebebeb" fill-rule="nonzero" node-id="181" stroke="none" target-height="5.8901367" target-width="149" target-x="10156.6" target-y="7868.25"/><path d="M 8735.20 8014.98 L 7465.98 8014.98 L 7465.98 8020.87 L 8735.20 8020.87 L 8735.20 8014.98 Z" fill="#ebebeb" fill-rule="nonzero" node-id="183" stroke="none" target-height="5.8901367" target-width="1269.2202" target-x="7465.98" target-y="8014.98"/><path d="M 5581.82 6660.51 L 1034.17 6660.51 C 998.54 6660.44 964.40 6646.25 939.23 6621.03 C 914.06 6595.82 899.92 6561.65 899.92 6526.02 L 899.92 133.30 C 900.23 97.88 914.50 64.01 939.64 39.05 C 964.78 14.09 998.75 0.06 1034.17 0.00 L 5581.82 0.00 C 5617.49 0.00 5651.70 14.17 5676.92 39.39 C 5702.14 64.61 5716.31 98.82 5716.31 134.48 L 5716.31 6526.02 C 5716.31 6561.69 5702.14 6595.90 5676.92 6621.12 C 5651.70 6646.34 5617.49 6660.51 5581.82 6660.51 Z M 1034.17 4.71 C 1000.10 4.77 967.46 18.35 943.39 42.46 C 919.33 66.57 905.81 99.24 905.81 133.30 L 905.81 6526.02 C 905.81 6560.09 919.33 6592.76 943.39 6616.87 C 967.46 6640.98 1000.10 6654.55 1034.17 6654.62 L 5581.82 6654.62 C 5615.91 6654.56 5648.58 6640.99 5672.68 6616.88 C 5696.79 6592.78 5710.36 6560.11 5710.42 6526.02 L 5710.42 133.30 C 5710.36 99.22 5696.79 66.55 5672.68 42.44 C 5648.58 18.34 5615.91 4.77 5581.82 4.71 L 1034.17 4.71 Z" fill="#ebebeb" fill-rule="nonzero" node-id="185" stroke="none" target-height="6660.51" target-width="4816.388" target-x="899.922" target-y="0"/><path d="M 10676.40 6660.51 L 6128.47 6660.51 C 6092.82 6660.44 6058.65 6646.25 6033.44 6621.05 C 6008.24 6595.84 5994.05 6561.67 5993.98 6526.02 L 5993.98 133.30 C 5994.36 97.86 6008.68 63.99 6033.85 39.04 C 6059.03 14.09 6093.02 0.06 6128.47 0.00 L 10676.40 0.00 C 10711.70 0.12 10745.60 14.18 10770.70 39.14 C 10795.80 64.09 10810.10 97.92 10810.40 133.30 L 10810.40 6526.02 C 10810.40 6561.61 10796.30 6595.74 10771.10 6620.95 C 10746.00 6646.16 10711.90 6660.38 10676.40 6660.51 Z M 6128.47 4.71 C 6094.38 4.77 6061.71 18.34 6037.61 42.44 C 6013.50 66.55 5999.93 99.22 5999.87 133.30 L 5999.87 6526.02 C 5999.93 6560.11 6013.50 6592.78 6037.61 6616.88 C 6061.71 6640.99 6094.38 6654.56 6128.47 6654.62 L 10676.40 6654.62 C 10710.40 6654.56 10743.10 6640.99 10767.20 6616.88 C 10791.30 6592.78 10804.90 6560.11 10805.00 6526.02 L 10805.00 133.30 C 10804.90 99.22 10791.30 66.55 10767.20 42.44 C 10743.10 18.34 10710.40 4.77 10676.40 4.71 L 6128.47 4.71 Z" fill="#ebebeb" fill-rule="nonzero" node-id="187" stroke="none" target-height="6660.51" target-width="4816.4204" target-x="5993.98" target-y="0"/><path d="M 9334.84 5742.21 L 9178.45 5742.21 L 9178.45 7710.93 L 9334.84 7710.93 L 9334.84 5742.21 Z" fill="#f5f5f5" fill-rule="nonzero" node-id="189" stroke="none" target-height="1968.7202" target-width="156.38965" target-x="9178.45" target-y="5742.21"/><path d="M 9402.90 5742.21 L 9266.77 5742.21 L 9266.77 7710.93 L 9402.90 7710.93 L 9402.90 5742.21 Z" fill="#f0f0f0" fill-rule="nonzero" node-id="191" stroke="none" target-height="1968.7202" target-width="136.13086" target-x="9266.77" target-y="5742.21"/><path d="M 5687.10 5742.21 L 5530.72 5742.21 L 5530.72 7710.93 L 5687.10 7710.93 L 5687.10 5742.21 Z" fill="#f5f5f5" fill-rule="nonzero" node-id="193" stroke="none" target-height="1968.7202" target-width="156.37988" target-x="5530.72" target-y="5742.21"/><path d="M 5755.17 5742.21 L 5619.04 5742.21 L 5619.04 7710.93 L 5755.17 7710.93 L 5755.17 5742.21 Z" fill="#f0f0f0" fill-rule="nonzero" node-id="195" stroke="none" target-height="1968.7202" target-width="136.12988" target-x="5619.04" target-y="5742.21"/><path d="M 9927.64 5742.21 L 9771.25 5742.21 L 9771.25 7710.93 L 9927.64 7710.93 L 9927.64 5742.21 Z" fill="#f5f5f5" fill-rule="nonzero" node-id="197" stroke="none" target-height="1968.7202" target-width="156.38965" target-x="9771.25" target-y="5742.21"/><path d="M 9995.70 5742.21 L 9859.57 5742.21 L 9859.57 7710.93 L 9995.70 7710.93 L 9995.70 5742.21 Z" fill="#f0f0f0" fill-rule="nonzero" node-id="199" stroke="none" target-height="1968.7202" target-width="136.12988" target-x="9859.57" target-y="5742.21"/><path d="M 6279.91 5742.21 L 6123.52 5742.21 L 6123.52 7710.93 L 6279.91 7710.93 L 6279.91 5742.21 Z" fill="#f5f5f5" fill-rule="nonzero" node-id="201" stroke="none" target-height="1968.7202" target-width="156.39014" target-x="6123.52" target-y="5742.21"/><path d="M 5530.95 5779.43 L 9995.70 5779.43 L 9995.70 5704.77 L 5530.95 5704.77 L 5530.95 5779.43 Z" fill="#f0f0f0" fill-rule="nonzero" node-id="203" stroke="none" target-height="74.66016" target-width="4464.75" target-x="5530.95" target-y="5704.77"/><path d="M 5530.72 5779.43 L 6211.84 5779.43 L 6211.84 5704.77 L 5530.72 5704.77 L 5530.72 5779.43 Z" fill="#e6e6e6" fill-rule="nonzero" node-id="205" stroke="none" target-height="74.66016" target-width="681.1196" target-x="5530.72" target-y="5704.77"/><path d="M 6347.97 5742.21 L 6211.84 5742.21 L 6211.84 7710.93 L 6347.97 7710.93 L 6347.97 5742.21 Z" fill="#f0f0f0" fill-rule="nonzero" node-id="207" stroke="none" target-height="1968.7202" target-width="136.13037" target-x="6211.84" target-y="5742.21"/><path d="M 7763.68 4270.92 L 7341.39 4270.92 L 7341.39 5704.76 L 7763.68 5704.76 L 7763.68 4270.92 Z" fill="#ebebeb" fill-rule="nonzero" node-id="209" stroke="none" target-height="1433.8398" target-width="422.29004" target-x="7341.39" target-y="4270.92"/><path d="M 8908.78 5704.77 L 7506.96 5704.77 L 7295.23 4026.69 L 8697.05 4026.69 L 8908.78 5704.77 Z" fill="#e0e0e0" fill-rule="nonzero" node-id="211" stroke="none" target-height="1678.0801" target-width="1613.5503" target-x="7295.23" target-y="4026.69"/><path d="M 8991.21 5704.77 L 7543.23 5704.77 L 7331.50 4026.69 L 8779.48 4026.69 L 8991.21 5704.77 Z" fill="#f0f0f0" fill-rule="nonzero" node-id="213" stroke="none" target-height="1678.0801" target-width="1659.71" target-x="7331.5" target-y="4026.69"/><path d="M 8178.90 5704.77 L 7897.93 5704.77 L 7977.06 4026.69 L 8258.04 4026.69 L 8178.90 5704.77 Z" fill="#fafafa" fill-rule="nonzero" node-id="215" stroke="none" target-height="1678.0801" target-width="360.10986" target-x="7897.93" target-y="4026.69"/><path d="M 8500.86 5704.77 L 8224.36 5704.77 L 8303.49 4026.69 L 8579.99 4026.69 L 8500.86 5704.77 Z" fill="#fafafa" fill-rule="nonzero" node-id="217" stroke="none" target-height="1678.0801" target-width="355.62988" target-x="8224.36" target-y="4026.69"/><path d="M 10149.70 412.39 L 6507.89 412.39 L 6507.89 3261.95 L 10149.70 3261.95 L 10149.70 412.39 Z" fill="#e6e6e6" fill-rule="nonzero" node-id="219" stroke="none" target-height="2849.555" target-width="3641.81" target-x="6507.89" target-y="412.395"/><path d="M 10259.00 412.39 L 6559.00 412.39 L 6559.00 3261.95 L 10259.00 3261.95 L 10259.00 412.39 Z" fill="#f0f0f0" fill-rule="nonzero" node-id="221" stroke="none" target-height="2849.555" target-width="3700" target-x="6559" target-y="412.395"/><path d="M 10149.70 3261.95 L 6507.89 3261.95 L 6507.89 3357.34 L 10149.70 3357.34 L 10149.70 3261.95 Z" fill="#e6e6e6" fill-rule="nonzero" node-id="223" stroke="none" target-height="95.39014" target-width="3641.81" target-x="6507.89" target-y="3261.95"/><path d="M 10317.20 3261.95 L 6617.17 3261.95 L 6617.17 3357.34 L 10317.20 3357.34 L 10317.20 3261.95 Z" fill="#f0f0f0" fill-rule="nonzero" node-id="225" stroke="none" target-height="95.39014" target-width="3700.0303" target-x="6617.17" target-y="3261.95"/><path d="M 10106.20 3108.87 L 10106.20 565.25 L 6712.08 565.25 L 6712.08 3108.87 L 10106.20 3108.87 Z" fill="#fafafa" fill-rule="nonzero" node-id="227" stroke="none" target-height="2543.62" target-width="3394.12" target-x="6712.08" target-y="565.25"/><path d="M 8569.40 3108.86 L 8814.34 565.48 L 9238.27 565.48 L 8993.33 3108.86 L 8569.40 3108.86 Z" fill="#ffffff" fill-rule="nonzero" node-id="229" stroke="none" target-height="2543.376" target-width="668.86914" target-x="8569.4" target-y="565.484"/><path d="M 7499.66 3108.86 L 7744.60 565.48 L 8168.54 565.48 L 7923.60 3108.86 L 7499.66 3108.86 Z" fill="#ffffff" fill-rule="nonzero" node-id="231" stroke="none" target-height="2543.376" target-width="668.8799" target-x="7499.66" target-y="565.484"/><path d="M 6782.98 2246.86 C 6779.89 2246.80 6776.96 2245.53 6774.80 2243.33 C 6772.64 2241.13 6771.43 2238.17 6771.44 2235.09 L 6771.44 664.87 C 6771.44 661.75 6772.68 658.75 6774.88 656.55 C 6777.09 654.34 6780.09 653.10 6783.21 653.10 C 6786.33 653.10 6789.33 654.34 6791.54 656.55 C 6793.75 658.75 6794.99 661.75 6794.99 664.87 L 6794.99 2235.09 C 6794.99 2236.65 6794.68 2238.20 6794.07 2239.65 C 6793.46 2241.09 6792.57 2242.40 6791.46 2243.50 C 6790.34 2244.59 6789.01 2245.46 6787.55 2246.03 C 6786.10 2246.61 6784.54 2246.89 6782.98 2246.86 Z" fill="#f0f0f0" fill-rule="nonzero" node-id="233" stroke="none" target-height="1593.7919" target-width="23.560059" target-x="6771.43" target-y="653.098"/><path d="M 9084.24 3108.86 L 9329.18 565.48 L 9494.52 565.48 L 9249.58 3108.86 L 9084.24 3108.86 Z" fill="#ffffff" fill-rule="nonzero" node-id="235" stroke="none" target-height="2543.376" target-width="410.2793" target-x="9084.24" target-y="565.484"/><path d="M 10106.20 3109.10 L 10106.20 565.48 L 10086.90 565.48 L 10086.90 3109.10 L 10106.20 3109.10 Z" fill="#e6e6e6" fill-rule="nonzero" node-id="237" stroke="none" target-height="2543.6162" target-width="19.299805" target-x="10086.9" target-y="565.484"/><g node-id="620"><path d="M 10295.30 842.69 L 6653.44 842.69 L 6639.31 624.84 L 10281.20 624.84 L 10295.30 842.69 Z" fill="#e0e0e0" fill-opacity="0.5" fill-rule="nonzero" group-id="1" node-id="241" stroke="none" target-height="217.85602" target-width="3655.9897" target-x="6639.31" target-y="624.836"/></g><g node-id="621"><path d="M 10295.30 1200.91 L 6653.44 1200.91 L 6639.31 983.06 L 10281.20 983.06 L 10295.30 1200.91 Z" fill="#e0e0e0" fill-opacity="0.5" fill-rule="nonzero" group-id="2" node-id="246" stroke="none" target-height="217.85101" target-width="3655.9897" target-x="6639.31" target-y="983.059"/></g><g node-id="622"><path d="M 10295.30 1559.14 L 6653.44 1559.14 L 6639.31 1341.29 L 10281.20 1341.29 L 10295.30 1559.14 Z" fill="#e0e0e0" fill-opacity="0.5" fill-rule="nonzero" group-id="3" node-id="251" stroke="none" target-height="217.84998" target-width="3655.9897" target-x="6639.31" target-y="1341.29"/></g><g node-id="623"><path d="M 10295.30 1917.37 L 6653.44 1917.37 L 6639.31 1699.51 L 10281.20 1699.51 L 10295.30 1917.37 Z" fill="#e0e0e0" fill-opacity="0.5" fill-rule="nonzero" group-id="4" node-id="256" stroke="none" target-height="217.85999" target-width="3655.9897" target-x="6639.31" target-y="1699.51"/></g><g node-id="624"><path d="M 10295.30 2275.36 L 6653.44 2275.36 L 6639.31 2057.50 L 10281.20 2057.50 L 10295.30 2275.36 Z" fill="#e0e0e0" fill-opacity="0.5" fill-rule="nonzero" group-id="5" node-id="261" stroke="none" target-height="217.8601" target-width="3655.9897" target-x="6639.31" target-y="2057.5"/></g><g node-id="625"><path d="M 10295.30 2633.59 L 6653.44 2633.59 L 6639.31 2415.73 L 10281.20 2415.73 L 10295.30 2633.59 Z" fill="#e0e0e0" fill-opacity="0.5" fill-rule="nonzero" group-id="6" node-id="266" stroke="none" target-height="217.8601" target-width="3655.9897" target-x="6639.31" target-y="2415.73"/></g><g node-id="626"><path d="M 10295.30 1021.92 L 6653.44 1021.92 L 6639.31 804.07 L 10281.20 804.07 L 10295.30 1021.92 Z" fill="#e0e0e0" fill-opacity="0.5" fill-rule="nonzero" group-id="7" node-id="271" stroke="none" target-height="217.854" target-width="3655.9897" target-x="6639.31" target-y="804.066"/></g><g node-id="627"><path d="M 10295.30 1379.91 L 6653.44 1379.91 L 6639.31 1162.05 L 10281.20 1162.05 L 10295.30 1379.91 Z" fill="#e0e0e0" fill-opacity="0.5" fill-rule="nonzero" group-id="8" node-id="276" stroke="none" target-height="217.85999" target-width="3655.9897" target-x="6639.31" target-y="1162.05"/></g><g node-id="628"><path d="M 10295.30 1738.14 L 6653.44 1738.14 L 6639.31 1520.28 L 10281.20 1520.28 L 10295.30 1738.14 Z" fill="#e0e0e0" fill-opacity="0.5" fill-rule="nonzero" group-id="9" node-id="281" stroke="none" target-height="217.85999" target-width="3655.9897" target-x="6639.31" target-y="1520.28"/></g><g node-id="629"><path d="M 10295.30 2096.36 L 6653.44 2096.36 L 6639.31 1878.51 L 10281.20 1878.51 L 10295.30 2096.36 Z" fill="#e0e0e0" fill-opacity="0.5" fill-rule="nonzero" group-id="10" node-id="286" stroke="none" target-height="217.8501" target-width="3655.9897" target-x="6639.31" target-y="1878.51"/></g><g node-id="630"><path d="M 10295.30 2454.59 L 6653.44 2454.59 L 6639.31 2236.73 L 10281.20 2236.73 L 10295.30 2454.59 Z" fill="#e0e0e0" fill-opacity="0.5" fill-rule="nonzero" group-id="11" node-id="291" stroke="none" target-height="217.8601" target-width="3655.9897" target-x="6639.31" target-y="2236.73"/></g><g node-id="631"><path d="M 10295.30 2812.81 L 6653.44 2812.81 L 6639.31 2594.72 L 10281.20 2594.72 L 10295.30 2812.81 Z" fill="#e0e0e0" fill-opacity="0.5" fill-rule="nonzero" group-id="12" node-id="296" stroke="none" target-height="218.09009" target-width="3655.9897" target-x="6639.31" target-y="2594.72"/></g><path d="M 2336.36 1826.69 L 2830.72 1826.69 C 2893.41 1826.69 2944.24 1775.87 2944.24 1713.17 L 2944.24 1523.34 C 2944.24 1460.65 2893.41 1409.82 2830.72 1409.82 L 2336.36 1409.82 C 2273.66 1409.82 2222.84 1460.65 2222.84 1523.34 L 2222.84 1713.17 C 2222.84 1775.87 2273.66 1826.69 2336.36 1826.69 Z" fill="#f5f5f5" fill-rule="nonzero" node-id="299" stroke="none" target-height="416.87" target-width="721.3999" target-x="2222.84" target-y="1409.82"/><path d="M 2336.36 1409.59 L 2830.72 1409.59 C 2893.41 1409.59 2944.24 1358.76 2944.24 1296.07 L 2944.24 1106.24 C 2944.24 1043.54 2893.41 992.72 2830.72 992.72 L 2336.36 992.72 C 2273.66 992.72 2222.84 1043.54 2222.84 1106.24 L 2222.84 1296.07 C 2222.84 1358.76 2273.66 1409.59 2336.36 1409.59 Z" fill="#f5f5f5" fill-rule="nonzero" node-id="301" stroke="none" target-height="416.87396" target-width="721.3999" target-x="2222.84" target-y="992.716"/><path d="M 2497.93 992.72 L 2669.15 992.72 C 2690.87 992.72 2708.48 975.11 2708.48 953.39 L 2708.48 887.68 C 2708.48 865.95 2690.87 848.35 2669.15 848.35 L 2497.93 848.35 C 2476.20 848.35 2458.59 865.95 2458.59 887.68 L 2458.59 953.39 C 2458.59 975.11 2476.20 992.72 2497.93 992.72 Z" fill="#e0e0e0" fill-rule="nonzero" node-id="303" stroke="none" target-height="144.37402" target-width="249.8899" target-x="2458.59" target-y="848.345"/><path d="M 2336.36 2243.33 L 2830.72 2243.33 C 2893.41 2243.33 2944.24 2192.50 2944.24 2129.81 L 2944.24 1939.98 C 2944.24 1877.28 2893.41 1826.46 2830.72 1826.46 L 2336.36 1826.46 C 2273.66 1826.46 2222.84 1877.28 2222.84 1939.98 L 2222.84 2129.81 C 2222.84 2192.50 2273.66 2243.33 2336.36 2243.33 Z" fill="#f5f5f5" fill-rule="nonzero" node-id="305" stroke="none" target-height="416.87012" target-width="721.3999" target-x="2222.84" target-y="1826.46"/><path d="M 4958.17 1954.82 C 4958.17 1954.82 4934.62 2244.51 4018.68 2244.51 C 3102.74 2244.51 3078.95 1954.82 3078.95 1954.82 L 4958.17 1954.82 Z" fill="#f0f0f0" fill-rule="nonzero" node-id="307" stroke="none" target-height="289.69006" target-width="1879.22" target-x="3078.95" target-y="1954.82"/><path d="M 2148.88 2302.21 L 1423.01 2302.21 L 1423.01 7441.96 L 2148.88 7441.96 L 2148.88 2302.21 Z" fill="#f0f0f0" fill-rule="nonzero" node-id="309" stroke="none" target-height="5139.75" target-width="725.8699" target-x="1423.01" target-y="2302.21"/><path d="M 5141.64 7441.96 L 1562.21 7441.96 L 1562.21 7710.92 L 5141.64 7710.92 L 5141.64 7441.96 Z" fill="#f0f0f0" fill-rule="nonzero" node-id="311" stroke="none" target-height="268.95996" target-width="3579.4302" target-x="1562.21" target-y="7441.96"/><path d="M 2148.88 7441.73 L 5281.06 7441.73 L 5281.06 2301.97 L 2148.88 2301.97 L 2148.88 7441.73 Z" fill="#f5f5f5" fill-rule="nonzero" node-id="313" stroke="none" target-height="5139.76" target-width="3132.1802" target-x="2148.88" target-y="2301.97"/><path d="M 2434.10 5341.36 L 4995.62 5341.36 L 4995.62 4128.43 L 2434.10 4128.43 L 2434.10 5341.36 Z" fill="#f0f0f0" fill-rule="nonzero" node-id="315" stroke="none" target-height="1212.9297" target-width="2561.52" target-x="2434.1" target-y="4128.43"/><path d="M 2434.10 6824.90 L 4995.62 6824.90 L 4995.62 5611.97 L 2434.10 5611.97 L 2434.10 6824.90 Z" fill="#f0f0f0" fill-rule="nonzero" node-id="317" stroke="none" target-height="1212.9297" target-width="2561.52" target-x="2434.1" target-y="5611.97"/><path d="M 2434.10 7262.26 L 4995.62 7262.26 L 4995.62 7077.38 L 2434.10 7077.38 L 2434.10 7262.26 Z" fill="#f0f0f0" fill-rule="nonzero" node-id="319" stroke="none" target-height="184.87988" target-width="2561.52" target-x="2434.1" target-y="7077.38"/><path d="M 4365.83 4224.52 L 3063.88 4224.52 C 3036.91 4224.46 3011.07 4213.72 2992.00 4194.65 C 2972.94 4175.59 2962.20 4149.74 2962.13 4122.78 C 2962.26 4095.85 2973.03 4070.07 2992.09 4051.05 C 3011.15 4032.04 3036.95 4021.33 3063.88 4021.27 L 4365.83 4021.27 C 4392.76 4021.33 4418.57 4032.04 4437.63 4051.05 C 4456.69 4070.07 4467.45 4095.85 4467.58 4122.78 C 4467.52 4149.74 4456.78 4175.59 4437.71 4194.65 C 4418.64 4213.72 4392.80 4224.46 4365.83 4224.52 Z" fill="#f5f5f5" fill-rule="nonzero" node-id="321" stroke="none" target-height="203.25" target-width="1505.4502" target-x="2962.13" target-y="4021.27"/><path d="M 2434.10 3858.05 L 4995.62 3858.05 L 4995.62 2645.13 L 2434.10 2645.13 L 2434.10 3858.05 Z" fill="#f0f0f0" fill-rule="nonzero" node-id="323" stroke="none" target-height="1212.9202" target-width="2561.52" target-x="2434.1" target-y="2645.13"/><path d="M 4365.83 2741.22 L 3063.88 2741.22 C 3036.91 2741.15 3011.07 2730.41 2992.00 2711.35 C 2972.94 2692.28 2962.20 2666.44 2962.13 2639.47 C 2962.20 2612.51 2972.94 2586.66 2992.00 2567.60 C 3011.07 2548.53 3036.91 2537.79 3063.88 2537.73 L 4365.83 2537.73 C 4392.80 2537.79 4418.64 2548.53 4437.71 2567.60 C 4456.78 2586.66 4467.52 2612.51 4467.58 2639.47 C 4467.52 2666.44 4456.78 2692.28 4437.71 2711.35 C 4418.64 2730.41 4392.80 2741.15 4365.83 2741.22 Z" fill="#f5f5f5" fill-rule="nonzero" node-id="325" stroke="none" target-height="203.48999" target-width="1505.4502" target-x="2962.13" target-y="2537.73"/><path d="M 4365.83 5708.06 L 3063.88 5708.06 C 3036.91 5708.00 3011.07 5697.26 2992.00 5678.19 C 2972.94 5659.13 2962.20 5633.28 2962.13 5606.32 C 2962.20 5579.35 2972.94 5553.51 2992.00 5534.44 C 3011.07 5515.38 3036.91 5504.64 3063.88 5504.57 L 4365.83 5504.57 C 4392.80 5504.64 4418.64 5515.38 4437.71 5534.44 C 4456.78 5553.51 4467.52 5579.35 4467.58 5606.32 C 4467.52 5633.28 4456.78 5659.13 4437.71 5678.19 C 4418.64 5697.26 4392.80 5708.00 4365.83 5708.06 Z" fill="#f5f5f5" fill-rule="nonzero" node-id="327" stroke="none" target-height="203.49023" target-width="1505.4502" target-x="2962.13" target-y="5504.57"/><path d="M 5377.63 2243.56 L 2148.65 2243.56 L 2148.65 2302.21 L 5377.63 2302.21 L 5377.63 2243.56 Z" fill="#f0f0f0" fill-rule="nonzero" node-id="329" stroke="none" target-height="58.649902" target-width="3228.98" target-x="2148.65" target-y="2243.56"/><path d="M 1321.74 2302.21 L 2148.88 2302.21 L 2148.88 2243.56 L 1321.74 2243.56 L 1321.74 2302.21 Z" fill="#e6e6e6" fill-rule="nonzero" node-id="331" stroke="none" target-height="58.649902" target-width="827.1399" target-x="1321.74" target-y="2243.56"/><path d="M 5888.00 8774.53 C 8410.01 8774.53 10454.50 8655.17 10454.50 8507.92 C 10454.50 8360.68 8410.01 8241.32 5888.00 8241.32 C 3365.99 8241.32 1321.50 8360.68 1321.50 8507.92 C 1321.50 8655.17 3365.99 8774.53 5888.00 8774.53 Z" fill="#f5f5f5" fill-rule="nonzero" node-id="333" stroke="none" target-height="533.20996" target-width="9133" target-x="1321.5" target-y="8241.32"/><path d="M 10411.40 6173.22 L 1364.60 6173.22 L 1197.86 6015.42 L 10578.10 6015.42 L 10411.40 6173.22 Z" fill="#429cfd" fill-rule="nonzero" node-id="335" stroke="none" target-height="157.8003" target-width="9380.239" target-x="1197.86" target-y="6015.42"/><path d="M 10411.40 6173.22 L 1364.60 6173.22 L 1197.86 6015.42 L 10578.10 6015.42 L 10411.40 6173.22 Z" fill="#ffffff" fill-opacity="0.5" fill-rule="nonzero" group-id="13" node-id="339" stroke="none" target-height="157.8003" target-width="9380.239" target-x="1197.86" target-y="6015.42"/><path d="M 9635.59 6258.24 L 2140.41 6258.24 L 2002.16 6173.21 L 9773.84 6173.21 L 9635.59 6258.24 Z" fill="#429cfd" fill-rule="nonzero" node-id="342" stroke="none" target-height="85.03027" target-width="7771.6797" target-x="2002.16" target-y="6173.21"/><path d="M 9635.59 6258.24 L 2140.41 6258.24 L 2002.16 6173.21 L 9773.84 6173.21 L 9635.59 6258.24 Z" fill="#000000" fill-opacity="0.5" fill-rule="nonzero" group-id="14" node-id="346" stroke="none" target-height="85.03027" target-width="7771.6797" target-x="2002.16" target-y="6173.21"/><path d="M 2081.05 8507.93 L 1973.42 8507.93 L 2307.15 6258.24 L 2547.15 6258.24 L 2081.05 8507.93 Z" fill="#429cfd" fill-rule="nonzero" node-id="349" stroke="none" target-height="2249.6895" target-width="573.72986" target-x="1973.42" target-y="6258.24"/><path d="M 2081.05 8507.93 L 1973.42 8507.93 L 2307.15 6258.24 L 2547.15 6258.24 L 2081.05 8507.93 Z" fill="#000000" fill-opacity="0.5" fill-rule="nonzero" group-id="15" node-id="353" stroke="none" target-height="2249.6895" target-width="573.72986" target-x="1973.42" target-y="6258.24"/><path d="M 2663.73 8507.93 L 2556.33 8507.93 L 2890.07 6258.24 L 3130.06 6258.24 L 2663.73 8507.93 Z" fill="#429cfd" fill-rule="nonzero" node-id="356" stroke="none" target-height="2249.6895" target-width="573.73" target-x="2556.33" target-y="6258.24"/><path d="M 2663.73 8507.93 L 2556.33 8507.93 L 2890.07 6258.24 L 3130.06 6258.24 L 2663.73 8507.93 Z" fill="#000000" fill-opacity="0.5" fill-rule="nonzero" group-id="16" node-id="360" stroke="none" target-height="2249.6895" target-width="573.73" target-x="2556.33" target-y="6258.24"/><path d="M 9694.95 8507.93 L 9802.58 8507.93 L 9468.85 6258.24 L 9228.85 6258.24 L 9694.95 8507.93 Z" fill="#429cfd" fill-rule="nonzero" node-id="363" stroke="none" target-height="2249.6895" target-width="573.73047" target-x="9228.85" target-y="6258.24"/><path d="M 9694.95 8507.93 L 9802.58 8507.93 L 9468.85 6258.24 L 9228.85 6258.24 L 9694.95 8507.93 Z" fill="#000000" fill-opacity="0.5" fill-rule="nonzero" group-id="17" node-id="367" stroke="none" target-height="2249.6895" target-width="573.73047" target-x="9228.85" target-y="6258.24"/><path d="M 9112.27 8507.93 L 9219.67 8507.93 L 8885.93 6258.24 L 8645.94 6258.24 L 9112.27 8507.93 Z" fill="#429cfd" fill-rule="nonzero" node-id="370" stroke="none" target-height="2249.6895" target-width="573.7295" target-x="8645.94" target-y="6258.24"/><path d="M 9112.27 8507.93 L 9219.67 8507.93 L 8885.93 6258.24 L 8645.94 6258.24 L 9112.27 8507.93 Z" fill="#000000" fill-opacity="0.5" fill-rule="nonzero" group-id="18" node-id="374" stroke="none" target-height="2249.6895" target-width="573.7295" target-x="8645.94" target-y="6258.24"/><path d="M 5282.24 945.38 L 5586.30 965.87 C 5598.09 966.60 5609.46 970.53 5619.17 977.26 C 5628.89 983.99 5636.58 993.24 5641.41 1004.02 L 5673.44 1074.68 C 5680.39 1089.93 5692.96 1101.91 5708.53 1108.12 C 5746.67 1123.80 5783.66 1142.13 5819.23 1163.00 C 5833.42 1171.34 5850.24 1174.03 5866.33 1170.53 L 5942.64 1152.63 C 5954.14 1149.98 5966.14 1150.48 5977.37 1154.09 C 5988.61 1157.70 5998.66 1164.27 6006.47 1173.12 L 6207.13 1402.52 C 6214.91 1411.44 6220.12 1422.32 6222.20 1433.98 C 6224.27 1445.64 6223.13 1457.64 6218.91 1468.70 L 6191.11 1541.71 C 6185.25 1557.44 6185.67 1574.81 6192.29 1590.23 C 6208.21 1628.51 6221.44 1667.86 6231.86 1707.99 C 6235.88 1724.25 6246.11 1738.28 6260.36 1747.09 L 6326.77 1788.30 C 6336.82 1794.50 6344.99 1803.33 6350.38 1813.83 C 6355.78 1824.33 6358.20 1836.11 6357.39 1847.89 L 6337.14 2152.18 C 6336.37 2163.97 6332.39 2175.31 6325.62 2184.99 C 6318.85 2194.66 6309.55 2202.30 6298.75 2207.06 L 6228.09 2239.09 C 6212.93 2246.17 6200.99 2258.70 6194.65 2274.18 C 6179.15 2312.36 6160.89 2349.35 6140.01 2384.87 C 6131.59 2399.05 6128.90 2415.89 6132.47 2431.98 L 6150.13 2508.05 C 6152.87 2519.55 6152.40 2531.57 6148.79 2542.82 C 6145.18 2554.07 6138.56 2564.12 6129.64 2571.88 L 5900.25 2772.54 C 5891.37 2780.33 5880.54 2785.54 5868.91 2787.62 C 5857.29 2789.69 5845.32 2788.55 5834.30 2784.32 L 5761.05 2756.53 C 5745.54 2750.40 5728.28 2750.40 5712.77 2756.53 C 5674.46 2772.38 5635.12 2785.60 5595.01 2796.09 C 5578.80 2800.21 5564.80 2810.41 5555.92 2824.59 L 5514.70 2891.01 C 5508.45 2901.06 5499.57 2909.22 5489.03 2914.61 C 5478.50 2920.01 5466.69 2922.43 5454.88 2921.62 L 5150.82 2901.37 C 5139.04 2900.59 5127.70 2896.63 5117.99 2889.91 C 5108.29 2883.19 5100.59 2873.97 5095.71 2863.22 L 5063.68 2792.56 C 5056.73 2777.30 5044.16 2765.32 5028.59 2759.12 C 4990.45 2743.44 4953.46 2725.10 4917.89 2704.24 C 4903.71 2695.87 4886.88 2693.18 4870.79 2696.70 L 4794.72 2714.60 C 4783.22 2717.31 4771.20 2716.83 4759.96 2713.22 C 4748.71 2709.61 4738.66 2703.00 4730.89 2694.11 L 4529.99 2464.72 C 4522.25 2455.77 4517.07 2444.89 4515.00 2433.25 C 4512.93 2421.60 4514.04 2409.60 4518.22 2398.53 L 4546.01 2325.52 C 4551.88 2309.88 4551.46 2292.58 4544.83 2277.24 C 4528.95 2238.94 4515.73 2199.60 4505.26 2159.48 C 4501.24 2143.23 4491.01 2129.19 4476.76 2120.39 L 4410.35 2079.17 C 4400.30 2072.97 4392.13 2064.14 4386.74 2053.64 C 4381.34 2043.14 4378.92 2031.36 4379.73 2019.58 L 4399.98 1715.29 C 4400.81 1703.49 4404.82 1692.14 4411.57 1682.44 C 4418.33 1672.73 4427.59 1665.04 4438.37 1660.18 L 4509.03 1628.38 C 4524.29 1621.44 4536.27 1608.86 4542.47 1593.29 C 4558.15 1555.08 4576.49 1518.01 4597.35 1482.36 C 4605.75 1468.19 4608.53 1451.38 4605.12 1435.26 L 4587.22 1359.19 C 4584.52 1347.69 4585.00 1335.67 4588.61 1324.43 C 4592.22 1313.18 4598.82 1303.13 4607.71 1295.36 L 4837.11 1094.70 C 4845.97 1086.89 4856.80 1081.65 4868.41 1079.53 C 4880.03 1077.42 4892.01 1078.51 4903.05 1082.68 L 4976.30 1110.48 C 4991.79 1116.72 5009.10 1116.72 5024.58 1110.48 C 5062.85 1094.52 5102.20 1081.30 5142.34 1070.91 C 5158.47 1066.74 5172.43 1056.65 5181.44 1042.65 L 5222.66 976.23 C 5228.88 966.19 5237.71 958.02 5248.20 952.59 C 5258.69 947.16 5270.45 944.67 5282.24 945.38 Z M 4793.54 1896.17 C 4785.92 2010.01 4812.23 2123.54 4869.14 2222.42 C 4926.05 2321.31 5011.01 2401.09 5113.26 2451.68 C 5215.52 2502.27 5330.49 2521.40 5443.62 2506.65 C 5556.75 2491.90 5662.97 2443.92 5748.83 2368.80 C 5834.70 2293.68 5896.36 2194.78 5926.01 2084.61 C 5955.66 1974.44 5951.97 1857.95 5915.41 1749.88 C 5878.85 1641.80 5811.07 1547.00 5720.62 1477.46 C 5630.18 1407.91 5521.14 1366.75 5407.30 1359.19 C 5254.73 1349.10 5104.39 1399.99 4989.31 1500.68 C 4874.23 1601.36 4803.82 1743.61 4793.54 1896.17 Z" fill="#429cfd" fill-rule="nonzero" node-id="377" stroke="none" target-height="1977.7639" target-width="1979.2803" target-x="4378.92" target-y="944.666"/><path d="M 6487.40 2230.85 L 6591.73 2195.52 C 6597.25 2193.71 6603.16 2193.40 6608.83 2194.65 C 6614.51 2195.89 6619.74 2198.63 6624.00 2202.58 L 6641.19 2219.07 C 6647.22 2224.47 6655.01 2227.49 6663.10 2227.55 C 6677.43 2227.54 6691.75 2228.48 6705.96 2230.38 C 6710.07 2231.04 6714.26 2230.89 6718.31 2229.92 C 6722.35 2228.95 6726.16 2227.18 6729.51 2224.72 L 6748.83 2210.83 C 6753.59 2207.48 6759.16 2205.48 6764.96 2205.02 C 6770.76 2204.57 6776.57 2205.68 6781.80 2208.24 L 6880.48 2257.22 C 6885.68 2259.77 6890.08 2263.68 6893.23 2268.53 C 6896.39 2273.38 6898.16 2279.00 6898.38 2284.78 L 6898.38 2308.33 C 6898.69 2316.48 6902.05 2324.22 6907.80 2330.00 C 6917.96 2340.09 6927.41 2350.87 6936.06 2362.27 C 6940.99 2368.68 6948.13 2373.05 6956.08 2374.51 L 6979.64 2378.28 C 6985.36 2379.24 6990.71 2381.74 6995.11 2385.52 C 6999.51 2389.30 7002.79 2394.20 7004.60 2399.71 L 7039.93 2504.05 C 7041.85 2509.54 7042.23 2515.45 7041.02 2521.14 C 7039.82 2526.83 7037.08 2532.08 7033.10 2536.32 L 7016.61 2553.51 C 7011.17 2559.51 7008.15 2567.31 7008.13 2575.41 C 7008.14 2589.75 7007.19 2604.07 7005.31 2618.28 C 7004.62 2622.37 7004.74 2626.55 7005.67 2630.59 C 7006.60 2634.63 7008.32 2638.45 7010.72 2641.83 L 7024.62 2661.14 C 7028.05 2665.81 7030.13 2671.34 7030.63 2677.11 C 7031.13 2682.89 7030.03 2688.69 7027.45 2693.88 L 6978.46 2792.80 C 6975.91 2797.99 6972.00 2802.40 6967.15 2805.55 C 6962.30 2808.70 6956.68 2810.48 6950.90 2810.70 L 6927.35 2810.70 C 6919.26 2810.95 6911.58 2814.33 6905.92 2820.12 C 6895.66 2830.09 6884.89 2839.52 6873.65 2848.38 C 6867.24 2853.31 6862.87 2860.44 6861.40 2868.40 L 6857.64 2891.95 C 6856.68 2897.67 6854.18 2903.02 6850.40 2907.42 C 6846.62 2911.82 6841.71 2915.11 6836.20 2916.92 L 6731.87 2952.24 C 6726.36 2954.14 6720.44 2954.48 6714.75 2953.23 C 6709.06 2951.98 6703.82 2949.20 6699.60 2945.18 L 6682.17 2928.93 C 6676.26 2923.35 6668.40 2920.30 6660.27 2920.45 C 6646.01 2920.45 6631.77 2919.51 6617.64 2917.62 C 6613.55 2916.92 6609.37 2917.04 6605.32 2917.97 C 6601.28 2918.90 6597.46 2920.62 6594.09 2923.04 L 6574.78 2936.94 C 6570.06 2940.36 6564.49 2942.44 6558.68 2942.94 C 6552.87 2943.43 6547.04 2942.34 6541.80 2939.76 L 6443.12 2890.77 C 6437.89 2888.21 6433.46 2884.26 6430.31 2879.37 C 6427.16 2874.47 6425.40 2868.80 6425.22 2862.98 L 6425.22 2839.43 C 6424.85 2831.36 6421.49 2823.72 6415.80 2818.00 C 6405.70 2807.86 6396.26 2797.08 6387.54 2785.73 C 6385.17 2782.47 6382.18 2779.72 6378.75 2777.61 C 6375.31 2775.51 6371.50 2774.11 6367.52 2773.48 L 6343.97 2769.72 C 6338.25 2768.68 6332.91 2766.15 6328.48 2762.39 C 6324.06 2758.63 6320.71 2753.76 6318.77 2748.28 L 6283.44 2643.71 C 6281.62 2638.23 6281.32 2632.36 6282.56 2626.72 C 6283.80 2621.09 6286.55 2615.89 6290.50 2611.68 L 6306.99 2594.49 C 6312.44 2588.40 6315.46 2580.52 6315.47 2572.35 C 6315.46 2558.02 6316.41 2543.70 6318.30 2529.49 C 6319.59 2521.20 6317.56 2512.73 6312.64 2505.93 L 6298.98 2486.62 C 6295.55 2481.95 6293.47 2476.42 6292.97 2470.65 C 6292.47 2464.87 6293.58 2459.07 6296.16 2453.88 L 6345.15 2354.97 C 6347.66 2349.77 6351.57 2345.37 6356.43 2342.25 C 6361.30 2339.13 6366.93 2337.42 6372.70 2337.30 L 6396.25 2337.30 C 6404.40 2336.99 6412.14 2333.63 6417.92 2327.88 C 6428.06 2317.78 6438.84 2308.34 6450.19 2299.62 C 6456.60 2294.69 6460.97 2287.56 6462.43 2279.60 L 6466.20 2256.05 C 6467.10 2250.31 6469.55 2244.93 6473.28 2240.49 C 6477.02 2236.05 6481.90 2232.71 6487.40 2230.85 Z M 6549.81 2611.92 C 6557.31 2633.95 6571.17 2653.27 6589.63 2667.43 C 6608.10 2681.59 6630.35 2689.96 6653.57 2691.49 C 6676.79 2693.01 6699.95 2687.63 6720.11 2676.00 C 6740.27 2664.38 6756.54 2647.04 6766.85 2626.18 C 6777.17 2605.32 6781.07 2581.87 6778.07 2558.79 C 6775.07 2535.71 6765.30 2514.04 6749.99 2496.51 C 6734.68 2478.99 6714.52 2466.39 6692.05 2460.31 C 6669.59 2454.23 6645.82 2454.95 6623.76 2462.36 C 6609.07 2467.30 6595.50 2475.09 6583.83 2485.29 C 6572.15 2495.49 6562.61 2507.89 6555.73 2521.78 C 6548.86 2535.68 6544.80 2550.79 6543.79 2566.26 C 6542.77 2581.73 6544.82 2597.24 6549.81 2611.92 Z" fill="#429cfd" fill-rule="nonzero" node-id="379" stroke="none" target-height="761.0801" target-width="760.91016" target-x="6281.32" target-y="2193.4"/><path d="M 6487.40 2230.85 L 6591.73 2195.52 C 6597.25 2193.71 6603.16 2193.40 6608.83 2194.65 C 6614.51 2195.89 6619.74 2198.63 6624.00 2202.58 L 6641.19 2219.07 C 6647.22 2224.47 6655.01 2227.49 6663.10 2227.55 C 6677.43 2227.54 6691.75 2228.48 6705.96 2230.38 C 6710.07 2231.04 6714.26 2230.89 6718.31 2229.92 C 6722.35 2228.95 6726.16 2227.18 6729.51 2224.72 L 6748.83 2210.83 C 6753.59 2207.48 6759.16 2205.48 6764.96 2205.02 C 6770.76 2204.57 6776.57 2205.68 6781.80 2208.24 L 6880.48 2257.22 C 6885.68 2259.77 6890.08 2263.68 6893.23 2268.53 C 6896.39 2273.38 6898.16 2279.00 6898.38 2284.78 L 6898.38 2308.33 C 6898.69 2316.48 6902.05 2324.22 6907.80 2330.00 C 6917.96 2340.09 6927.41 2350.87 6936.06 2362.27 C 6940.99 2368.68 6948.13 2373.05 6956.08 2374.51 L 6979.64 2378.28 C 6985.36 2379.24 6990.71 2381.74 6995.11 2385.52 C 6999.51 2389.30 7002.79 2394.20 7004.60 2399.71 L 7039.93 2504.05 C 7041.85 2509.54 7042.23 2515.45 7041.02 2521.14 C 7039.82 2526.83 7037.08 2532.08 7033.10 2536.32 L 7016.61 2553.51 C 7011.17 2559.51 7008.15 2567.31 7008.13 2575.41 C 7008.14 2589.75 7007.19 2604.07 7005.31 2618.28 C 7004.62 2622.37 7004.74 2626.55 7005.67 2630.59 C 7006.60 2634.63 7008.32 2638.45 7010.72 2641.83 L 7024.62 2661.14 C 7028.05 2665.81 7030.13 2671.34 7030.63 2677.11 C 7031.13 2682.89 7030.03 2688.69 7027.45 2693.88 L 6978.46 2792.80 C 6975.91 2797.99 6972.00 2802.40 6967.15 2805.55 C 6962.30 2808.70 6956.68 2810.48 6950.90 2810.70 L 6927.35 2810.70 C 6919.26 2810.95 6911.58 2814.33 6905.92 2820.12 C 6895.66 2830.09 6884.89 2839.52 6873.65 2848.38 C 6867.24 2853.31 6862.87 2860.44 6861.40 2868.40 L 6857.64 2891.95 C 6856.68 2897.67 6854.18 2903.02 6850.40 2907.42 C 6846.62 2911.82 6841.71 2915.11 6836.20 2916.92 L 6731.87 2952.24 C 6726.36 2954.14 6720.44 2954.48 6714.75 2953.23 C 6709.06 2951.98 6703.82 2949.20 6699.60 2945.18 L 6682.17 2928.93 C 6676.26 2923.35 6668.40 2920.30 6660.27 2920.45 C 6646.01 2920.45 6631.77 2919.51 6617.64 2917.62 C 6613.55 2916.92 6609.37 2917.04 6605.32 2917.97 C 6601.28 2918.90 6597.46 2920.62 6594.09 2923.04 L 6574.78 2936.94 C 6570.06 2940.36 6564.49 2942.44 6558.68 2942.94 C 6552.87 2943.43 6547.04 2942.34 6541.80 2939.76 L 6443.12 2890.77 C 6437.89 2888.21 6433.46 2884.26 6430.31 2879.37 C 6427.16 2874.47 6425.40 2868.80 6425.22 2862.98 L 6425.22 2839.43 C 6424.85 2831.36 6421.49 2823.72 6415.80 2818.00 C 6405.70 2807.86 6396.26 2797.08 6387.54 2785.73 C 6385.17 2782.47 6382.18 2779.72 6378.75 2777.61 C 6375.31 2775.51 6371.50 2774.11 6367.52 2773.48 L 6343.97 2769.72 C 6338.25 2768.68 6332.91 2766.15 6328.48 2762.39 C 6324.06 2758.63 6320.71 2753.76 6318.77 2748.28 L 6283.44 2643.71 C 6281.62 2638.23 6281.32 2632.36 6282.56 2626.72 C 6283.80 2621.09 6286.55 2615.89 6290.50 2611.68 L 6306.99 2594.49 C 6312.44 2588.40 6315.46 2580.52 6315.47 2572.35 C 6315.46 2558.02 6316.41 2543.70 6318.30 2529.49 C 6319.59 2521.20 6317.56 2512.73 6312.64 2505.93 L 6298.98 2486.62 C 6295.55 2481.95 6293.47 2476.42 6292.97 2470.65 C 6292.47 2464.87 6293.58 2459.07 6296.16 2453.88 L 6345.15 2354.97 C 6347.66 2349.77 6351.57 2345.37 6356.43 2342.25 C 6361.30 2339.13 6366.93 2337.42 6372.70 2337.30 L 6396.25 2337.30 C 6404.40 2336.99 6412.14 2333.63 6417.92 2327.88 C 6428.06 2317.78 6438.84 2308.34 6450.19 2299.62 C 6456.60 2294.69 6460.97 2287.56 6462.43 2279.60 L 6466.20 2256.05 C 6467.10 2250.31 6469.55 2244.93 6473.28 2240.49 C 6477.02 2236.05 6481.90 2232.71 6487.40 2230.85 Z M 6549.81 2611.92 C 6557.31 2633.95 6571.17 2653.27 6589.63 2667.43 C 6608.10 2681.59 6630.35 2689.96 6653.57 2691.49 C 6676.79 2693.01 6699.95 2687.63 6720.11 2676.00 C 6740.27 2664.38 6756.54 2647.04 6766.85 2626.18 C 6777.17 2605.32 6781.07 2581.87 6778.07 2558.79 C 6775.07 2535.71 6765.30 2514.04 6749.99 2496.51 C 6734.68 2478.99 6714.52 2466.39 6692.05 2460.31 C 6669.59 2454.23 6645.82 2454.95 6623.76 2462.36 C 6609.07 2467.30 6595.50 2475.09 6583.83 2485.29 C 6572.15 2495.49 6562.61 2507.89 6555.73 2521.78 C 6548.86 2535.68 6544.80 2550.79 6543.79 2566.26 C 6542.77 2581.73 6544.82 2597.24 6549.81 2611.92 Z" fill="#ffffff" fill-opacity="0.5" fill-rule="nonzero" group-id="19" node-id="383" stroke="none" target-height="761.0801" target-width="760.91016" target-x="6281.32" target-y="2193.4"/><path d="M 5885.64 3361.81 L 6015.18 3137.36 C 6019.98 3129.01 6022.51 3119.55 6022.53 3109.92 C 6022.55 3100.30 6020.06 3090.83 6015.31 3082.45 C 6010.55 3074.08 6003.69 3067.10 5995.41 3062.19 C 5987.13 3057.28 5977.70 3054.61 5968.08 3054.46 L 5709.00 3054.46 C 5699.35 3054.54 5689.88 3057.16 5681.56 3062.06 C 5673.24 3066.95 5666.34 3073.95 5661.57 3082.34 C 5656.80 3090.74 5654.32 3100.24 5654.38 3109.89 C 5654.44 3119.55 5657.03 3129.02 5661.90 3137.36 L 5791.44 3361.81 C 5796.39 3369.85 5803.32 3376.48 5811.57 3381.08 C 5819.81 3385.68 5829.10 3388.10 5838.54 3388.10 C 5847.98 3388.10 5857.27 3385.68 5865.51 3381.08 C 5873.76 3376.48 5880.69 3369.85 5885.64 3361.81 Z" fill="#429cfd" fill-rule="nonzero" node-id="386" stroke="none" target-height="333.64014" target-width="368.22998" target-x="5654.32" target-y="3054.46"/><path d="M 1641.34 5921.44 L 4816.38 5921.44 C 4827.28 5921.48 4838.08 5919.32 4848.13 5915.09 C 4858.17 5910.85 4867.26 5904.64 4874.85 5896.81 C 4882.44 5888.98 4888.36 5879.70 4892.28 5869.53 C 4896.20 5859.35 4898.02 5848.49 4897.64 5837.60 L 4822.51 3567.66 C 4821.49 3545.20 4811.92 3523.98 4795.76 3508.35 C 4779.60 3492.72 4758.08 3483.85 4735.60 3483.58 L 1560.79 3483.58 C 1549.86 3483.50 1539.03 3485.65 1528.95 3489.89 C 1518.87 3494.12 1509.76 3500.36 1502.16 3508.22 C 1494.57 3516.08 1488.64 3525.40 1484.75 3535.62 C 1480.86 3545.83 1479.09 3556.73 1479.54 3567.66 L 1554.43 5837.60 C 1555.34 5860.07 1564.88 5881.33 1581.07 5896.95 C 1597.26 5912.57 1618.85 5921.34 1641.34 5921.44 Z" fill="#429cfd" fill-rule="nonzero" node-id="388" stroke="none" target-height="2437.98" target-width="3418.9302" target-x="1479.09" target-y="3483.5"/><path d="M 1667.24 5921.44 L 4842.29 5921.44 C 4853.19 5921.48 4863.99 5919.32 4874.03 5915.09 C 4884.08 5910.85 4893.17 5904.64 4900.76 5896.81 C 4908.34 5888.98 4914.27 5879.70 4918.19 5869.53 C 4922.10 5859.35 4923.92 5848.49 4923.54 5837.60 L 4848.41 3567.66 C 4847.39 3545.20 4837.82 3523.98 4821.67 3508.35 C 4805.51 3492.71 4783.99 3483.85 4761.51 3483.57 L 1586.70 3483.57 C 1575.78 3483.54 1564.96 3485.70 1554.90 3489.95 C 1544.83 3494.20 1535.73 3500.44 1528.14 3508.29 C 1520.55 3516.15 1514.63 3525.45 1510.73 3535.65 C 1506.83 3545.86 1505.03 3556.74 1505.44 3567.66 L 1580.57 5837.60 C 1581.48 5860.03 1590.99 5881.26 1607.13 5896.87 C 1623.26 5912.48 1644.79 5921.28 1667.24 5921.44 Z" fill="#429cfd" fill-rule="nonzero" node-id="390" stroke="none" target-height="2437.94" target-width="3418.89" target-x="1505.03" target-y="3483.54"/><path d="M 1667.24 5921.44 L 4842.29 5921.44 C 4853.19 5921.48 4863.99 5919.32 4874.03 5915.09 C 4884.08 5910.85 4893.17 5904.64 4900.76 5896.81 C 4908.34 5888.98 4914.27 5879.70 4918.19 5869.53 C 4922.10 5859.35 4923.92 5848.49 4923.54 5837.60 L 4848.41 3567.66 C 4847.39 3545.20 4837.82 3523.98 4821.67 3508.35 C 4805.51 3492.71 4783.99 3483.85 4761.51 3483.57 L 1586.70 3483.57 C 1575.78 3483.54 1564.96 3485.70 1554.90 3489.95 C 1544.83 3494.20 1535.73 3500.44 1528.14 3508.29 C 1520.55 3516.15 1514.63 3525.45 1510.73 3535.65 C 1506.83 3545.86 1505.03 3556.74 1505.44 3567.66 L 1580.57 5837.60 C 1581.48 5860.03 1590.99 5881.26 1607.13 5896.87 C 1623.26 5912.48 1644.79 5921.28 1667.24 5921.44 Z" fill="#263238" fill-opacity="0.6" fill-rule="nonzero" group-id="20" node-id="394" stroke="none" target-height="2437.94" target-width="3418.89" target-x="1505.03" target-y="3483.54"/><path d="M 1708.23 5917.44 L 5542.73 5917.44 C 5561.59 5917.44 5580.07 5922.73 5596.06 5932.73 C 5612.05 5942.72 5624.91 5957.01 5633.17 5973.97 C 5635.29 5978.40 5636.24 5983.30 5635.94 5988.20 C 5635.64 5993.11 5634.10 5997.86 5631.47 6002.00 C 5628.83 6006.15 5625.18 6009.55 5620.86 6011.90 C 5616.55 6014.25 5611.70 6015.46 5606.79 6015.42 L 1644.17 6015.42 C 1639.23 6015.50 1634.36 6014.32 1630.01 6011.99 C 1625.66 6009.66 1621.98 6006.26 1619.31 6002.10 C 1616.65 5997.95 1615.09 5993.19 1614.78 5988.26 C 1614.47 5983.34 1615.43 5978.42 1617.55 5973.97 C 1625.85 5956.99 1638.75 5942.70 1654.78 5932.70 C 1670.82 5922.71 1689.33 5917.42 1708.23 5917.44 Z" fill="#429cfd" fill-rule="nonzero" node-id="397" stroke="none" target-height="98.08008" target-width="4021.7703" target-x="1614.47" target-y="5917.42"/><path d="M 5542.73 5917.44 L 2482.85 5917.44 C 2463.96 5917.42 2445.44 5922.71 2429.41 5932.70 C 2413.38 5942.70 2400.48 5956.99 2392.18 5973.97 C 2390.05 5978.42 2389.10 5983.34 2389.40 5988.26 C 2389.71 5993.19 2391.27 5997.95 2393.94 6002.10 C 2396.61 6006.26 2400.29 6009.66 2404.64 6011.99 C 2408.99 6014.32 2413.86 6015.50 2418.79 6015.42 L 5606.79 6015.42 C 5611.70 6015.46 5616.55 6014.25 5620.86 6011.90 C 5625.18 6009.55 5628.83 6006.15 5631.47 6002.00 C 5634.10 5997.86 5635.64 5993.11 5635.94 5988.20 C 5636.24 5983.30 5635.28 5978.40 5633.17 5973.97 C 5624.91 5957.01 5612.05 5942.72 5596.06 5932.73 C 5580.07 5922.73 5561.59 5917.44 5542.73 5917.44 Z" fill="#263238" fill-opacity="0.6" fill-rule="nonzero" group-id="21" node-id="401" stroke="none" target-height="98.08008" target-width="3247.1401" target-x="2389.1" target-y="5917.42"/><path d="M 3713.68 5979.62 L 4509.74 5979.62 C 4519.19 5979.68 4528.23 5983.48 4534.90 5990.18 C 4541.56 5996.89 4545.30 6005.96 4545.30 6015.42 L 3677.88 6015.42 C 3677.88 6005.92 3681.65 5996.82 3688.36 5990.10 C 3695.08 5983.39 3704.18 5979.62 3713.68 5979.62 Z" fill="#ffffff" fill-opacity="0.3" fill-rule="nonzero" group-id="22" node-id="406" stroke="none" target-height="35.799805" target-width="867.4199" target-x="3677.88" target-y="5979.62"/><path d="M 4847.71 5755.40 L 4777.05 3649.85 C 4776.63 3641.10 4772.89 3632.84 4766.59 3626.76 C 4760.28 3620.67 4751.90 3617.22 4743.14 3617.11 L 1612.84 3617.11 C 1608.52 3617.07 1604.24 3617.92 1600.27 3619.61 C 1596.30 3621.30 1592.71 3623.80 1589.75 3626.94 C 1586.79 3630.08 1584.51 3633.80 1583.05 3637.86 C 1581.59 3641.93 1580.99 3646.25 1581.28 3650.56 L 1651.94 5756.11 C 1652.24 5764.86 1655.92 5773.15 1662.19 5779.25 C 1668.47 5785.35 1676.86 5788.79 1685.62 5788.84 L 4818.03 5788.84 C 4822.18 5788.60 4826.24 5787.55 4829.98 5785.74 C 4833.71 5783.92 4837.06 5781.39 4839.81 5778.28 C 4842.57 5775.18 4844.69 5771.56 4846.04 5767.63 C 4847.40 5763.70 4847.96 5759.55 4847.71 5755.40 Z" fill="#ffffff" fill-opacity="0.9" fill-rule="nonzero" group-id="23" node-id="411" stroke="none" target-height="2171.7698" target-width="3266.97" target-x="1580.99" target-y="3617.07"/><path d="M 2267.11 5788.14 L 1835.41 5788.14 L 2333.06 3617.12 L 2764.77 3617.12 L 2267.11 5788.14 Z" fill="#ffffff" fill-rule="nonzero" node-id="414" stroke="none" target-height="2171.02" target-width="929.36" target-x="1835.41" target-y="3617.12"/><path d="M 2542.20 5788.14 L 2386.76 5788.14 L 2884.41 3617.12 L 3039.86 3617.12 L 2542.20 5788.14 Z" fill="#ffffff" fill-rule="nonzero" node-id="416" stroke="none" target-height="2171.02" target-width="653.1001" target-x="2386.76" target-y="3617.12"/><path d="M 4130.31 5788.14 L 3974.87 5788.14 L 4472.52 3617.12 L 4627.73 3617.12 L 4130.31 5788.14 Z" fill="#ffffff" fill-rule="nonzero" node-id="418" stroke="none" target-height="2171.02" target-width="652.85986" target-x="3974.87" target-y="3617.12"/><path d="M 3151.73 3554.00 C 3152.31 3560.37 3155.23 3566.31 3159.93 3570.65 C 3164.62 3575.00 3170.76 3577.46 3177.16 3577.55 C 3183.41 3577.55 3189.40 3575.07 3193.82 3570.65 C 3198.24 3566.23 3200.72 3560.24 3200.72 3554.00 C 3200.24 3547.58 3197.35 3541.59 3192.63 3537.22 C 3187.91 3532.85 3181.71 3530.43 3175.28 3530.45 C 3169.03 3530.45 3163.04 3532.93 3158.63 3537.34 C 3154.21 3541.76 3151.73 3547.75 3151.73 3554.00 Z" fill="#ffffff" fill-opacity="0.4" fill-rule="nonzero" group-id="24" node-id="422" stroke="none" target-height="47.120117" target-width="48.98999" target-x="3151.73" target-y="3530.43"/><path d="M 4162.58 3322.25 C 4204.27 3389.13 4249.25 3460.03 4294.24 3528.33 C 4339.22 3596.63 4385.38 3664.93 4432.49 3731.82 C 4523.88 3864.71 4622.73 3992.33 4728.54 4114.06 C 4778.24 4170.89 4832.17 4223.87 4889.87 4272.57 L 4910.12 4288.58 C 4914.55 4292.38 4919.19 4295.92 4924.02 4299.18 C 4936.22 4307.21 4948.88 4314.52 4961.94 4321.09 C 4993.73 4336.56 5026.64 4349.63 5060.38 4360.18 C 5095.95 4372.19 5133.39 4383.73 5171.55 4392.45 C 5209.70 4401.16 5249.03 4411.29 5289.31 4419.53 C 5368.21 4436.26 5450.64 4451.56 5530.01 4465.22 L 5530.01 4630.09 C 5484.79 4636.68 5442.40 4639.98 5398.35 4643.04 C 5354.31 4646.10 5310.74 4647.28 5266.46 4647.52 C 5176.06 4647.83 5085.78 4640.66 4996.56 4626.08 C 4948.24 4617.69 4900.62 4605.72 4854.07 4590.29 C 4828.02 4581.34 4802.67 4570.48 4778.23 4557.78 C 4765.28 4551.66 4751.62 4542.95 4738.43 4534.23 L 4708.04 4513.04 C 4633.08 4457.95 4562.96 4396.57 4498.43 4329.57 C 4376.91 4202.74 4264.45 4067.53 4161.87 3924.94 C 4110.84 3855.07 4061.70 3784.41 4014.44 3712.97 C 3967.33 3640.43 3920.23 3569.31 3876.42 3492.06 L 4162.58 3322.25 Z" fill="#ffc3bd" fill-rule="nonzero" node-id="425" stroke="none" target-height="1325.5801" target-width="1653.5898" target-x="3876.42" target-y="3322.25"/><path d="M 3766.20 3367.94 C 3742.65 3574.72 4235.59 4068.84 4235.59 4068.84 L 4569.09 3790.46 C 4471.35 3625.08 4363.19 3466.10 4245.25 3314.47 C 4055.65 3079.66 3791.87 3134.06 3766.20 3367.94 Z" fill="#429cfd" fill-rule="nonzero" node-id="427" stroke="none" target-height="989.1802" target-width="826.43994" target-x="3742.65" target-y="3079.66"/><path d="M 4035.64 3514.66 C 3903.98 3373.35 3841.10 3336.85 3765.26 3393.13 C 3775.39 3611.46 4236.30 4068.37 4236.30 4068.37 C 4266.44 3834.03 4147.04 3683.30 4035.64 3514.66 Z" fill="#000000" fill-opacity="0.3" fill-rule="nonzero" group-id="25" node-id="431" stroke="none" target-height="731.52" target-width="501.17993" target-x="3765.26" target-y="3336.85"/><path d="M 4542.00 3695.07 L 4577.10 3796.82 L 4204.03 4103.00 L 4130.31 4026.45 L 4542.00 3695.07 Z" fill="#429cfd" fill-rule="nonzero" node-id="434" stroke="none" target-height="407.92993" target-width="446.79004" target-x="4130.31" target-y="3695.07"/><path d="M 4542.00 3695.07 L 4577.10 3796.82 L 4204.03 4103.00 L 4130.31 4026.45 L 4542.00 3695.07 Z" fill="#263238" fill-opacity="0.3" fill-rule="nonzero" group-id="26" node-id="438" stroke="none" target-height="407.92993" target-width="446.79004" target-x="4130.31" target-y="3695.07"/><path d="M 5512.35 4461.93 L 5771.42 4506.44 L 5628.93 4733.95 C 5595.01 4739.37 5459.82 4666.12 5400.00 4575.21 L 5512.35 4461.93 Z" fill="#ffc3bd" fill-rule="nonzero" node-id="441" stroke="none" target-height="277.43994" target-width="371.41992" target-x="5400" target-y="4461.93"/><path d="M 5930.39 4660.00 L 5827.00 4777.29 L 5628.69 4732.77 L 5770.95 4506.44 L 5930.39 4660.00 Z" fill="#ffc3bd" fill-rule="nonzero" node-id="443" stroke="none" target-height="270.8501" target-width="301.7002" target-x="5628.69" target-y="4506.44"/><path d="M 4034.46 3169.86 C 4034.46 3169.86 4317.08 3834.50 4113.59 5072.39 L 2935.99 5072.39 C 2921.62 4891.75 3004.53 4010.20 2800.80 3158.56 C 2930.44 3133.41 3061.60 3116.81 3193.41 3108.86 C 3360.10 3099.20 3527.21 3099.20 3693.89 3108.86 C 3808.82 3120.39 3922.68 3140.78 4034.46 3169.86 Z" fill="#429cfd" fill-rule="nonzero" node-id="445" stroke="none" target-height="1973.1902" target-width="1516.28" target-x="2800.8" target-y="3099.2"/><path d="M 3063.88 3367.93 C 3087.43 3509.25 3055.87 3843.21 2935.76 4230.88 C 2926.55 3898.38 2887.85 3567.35 2820.12 3241.70 L 2820.12 3240.05 C 2896.89 3233.69 3040.56 3237.46 3063.88 3367.93 Z" fill="#000000" fill-opacity="0.3" fill-rule="nonzero" group-id="27" node-id="449" stroke="none" target-height="997.18994" target-width="267.3098" target-x="2820.12" target-y="3233.69"/><path d="M 3223.33 2545.27 C 3260.54 2706.36 3302.23 3001.47 3193.42 3108.86 C 3193.42 3108.86 3240.52 3242.17 3539.63 3242.17 C 3869.36 3242.17 3693.90 3108.86 3693.90 3108.86 C 3512.78 3066.00 3512.78 2932.70 3539.63 2807.63 L 3223.33 2545.27 Z" fill="#ffc3bd" fill-rule="nonzero" node-id="452" stroke="none" target-height="696.8999" target-width="675.9402" target-x="3193.42" target-y="2545.27"/><path d="M 3559.88 3254.65 L 3630.54 3329.31 C 3632.68 3331.51 3634.10 3334.32 3634.61 3337.35 C 3635.11 3340.38 3634.68 3343.49 3633.37 3346.27 L 3598.04 3419.99 C 3596.90 3422.50 3595.09 3424.65 3592.80 3426.18 C 3590.51 3427.72 3587.84 3428.59 3585.08 3428.70 L 3531.62 3431.29 C 3529.08 3431.40 3526.55 3430.84 3524.28 3429.69 C 3522.01 3428.53 3520.08 3426.81 3518.67 3424.70 L 3469.21 3354.04 C 3467.22 3351.39 3466.15 3348.17 3466.15 3344.85 C 3466.15 3341.54 3467.22 3338.32 3469.21 3335.67 L 3537.04 3255.36 C 3538.38 3253.63 3540.08 3252.23 3542.03 3251.24 C 3543.97 3250.25 3546.11 3249.70 3548.29 3249.63 C 3550.48 3249.56 3552.65 3249.98 3554.65 3250.85 C 3556.65 3251.71 3558.44 3253.01 3559.88 3254.65 Z" fill="#ffffff" fill-rule="nonzero" node-id="454" stroke="none" target-height="181.83984" target-width="168.9602" target-x="3466.15" target-y="3249.56"/><path d="M 3548.35 3242.17 C 3514.35 3296.86 3494.67 3359.22 3491.11 3423.52 C 3491.11 3423.52 3108.86 3292.80 3126.29 3101.56 C 3160.24 3085.10 3192.91 3066.13 3224.03 3044.80 C 3224.03 3044.80 3236.52 3165.62 3548.35 3242.17 Z" fill="#263238" fill-rule="nonzero" node-id="456" stroke="none" target-height="378.71997" target-width="439.49" target-x="3108.86" target-y="3044.8"/><path d="M 3548.34 3242.17 C 3582.35 3294.02 3606.83 3351.53 3620.65 3411.98 C 3620.65 3411.98 3797.76 3290.68 3747.36 3101.56 L 3643.26 3079.19 C 3643.26 3079.19 3665.16 3201.19 3548.34 3242.17 Z" fill="#263238" fill-rule="nonzero" node-id="458" stroke="none" target-height="332.79004" target-width="249.41992" target-x="3548.34" target-y="3079.19"/><path d="M 3591.68 3420.69 C 3615.23 3498.88 3792.81 4078.73 3797.29 4217.46 C 3797.40 4218.63 3797.40 4219.81 3797.29 4220.99 C 3780.80 4295.65 3706.85 4426.60 3676.70 4477.94 C 3675.54 4479.97 3673.84 4481.63 3671.79 4482.74 C 3669.73 4483.85 3667.40 4484.36 3665.07 4484.21 C 3662.74 4484.06 3660.50 4483.26 3658.60 4481.91 C 3656.70 4480.55 3655.22 4478.68 3654.33 4476.53 C 3633.60 4425.89 3583.67 4304.60 3550.70 4233.71 C 3550.09 4232.36 3549.69 4230.93 3549.52 4229.47 C 3533.98 3976.28 3529.74 3582.49 3521.97 3425.17 C 3521.87 3423.47 3522.12 3421.77 3522.70 3420.17 C 3523.29 3418.57 3524.19 3417.11 3525.36 3415.88 C 3526.53 3414.64 3527.94 3413.66 3529.50 3412.99 C 3531.06 3412.32 3532.75 3411.97 3534.45 3411.98 L 3579.90 3411.98 C 3582.53 3412.00 3585.09 3412.86 3587.20 3414.42 C 3589.32 3415.99 3590.89 3418.18 3591.68 3420.69 Z" fill="#ffffff" fill-rule="nonzero" node-id="460" stroke="none" target-height="1072.3899" target-width="275.5298" target-x="3521.87" target-y="3411.97"/><path d="M 3352.39 2652.19 L 3539.63 2807.40 C 3532.85 2836.57 3528.68 2866.28 3527.15 2896.19 C 3458.14 2886.30 3362.28 2811.17 3351.68 2739.33 C 3346.50 2710.50 3346.74 2680.94 3352.39 2652.19 Z" fill="#000000" fill-opacity="0.2" fill-rule="nonzero" group-id="28" node-id="464" stroke="none" target-height="244" target-width="193.12988" target-x="3346.5" target-y="2652.19"/><path d="M 3684.47 2066.45 C 3728.99 2099.66 3805.06 2240.03 3708.03 2276.77 C 3610.99 2313.51 3575.43 1984.96 3684.47 2066.45 Z" fill="#263238" fill-rule="nonzero" node-id="467" stroke="none" target-height="328.55005" target-width="229.63013" target-x="3575.43" target-y="1984.96"/><path d="M 3165.39 2352.14 C 3209.90 2566.70 3225.21 2694.11 3350.74 2792.79 C 3391.20 2825.37 3439.79 2846.26 3491.26 2853.20 C 3542.73 2860.15 3595.12 2852.88 3642.76 2832.19 C 3690.40 2811.50 3731.47 2778.17 3761.53 2735.82 C 3791.59 2693.46 3809.50 2643.69 3813.30 2591.90 C 3831.68 2392.88 3755.37 2075.64 3530.68 2012.99 C 3482.41 1998.20 3431.10 1996.35 3381.89 2007.64 C 3332.68 2018.93 3287.30 2042.95 3250.30 2077.30 C 3213.31 2111.65 3185.99 2155.12 3171.08 2203.36 C 3156.18 2251.60 3154.22 2302.90 3165.39 2352.14 Z" fill="#ffc3bd" fill-rule="nonzero" node-id="469" stroke="none" target-height="863.7999" target-width="677.45996" target-x="3154.22" target-y="1996.35"/><path d="M 3193.41 2513.70 L 3283.38 2453.65 L 3289.27 2401.36 C 3297.54 2325.55 3283.37 2248.98 3248.53 2181.15 C 3248.53 2181.15 3685.89 2197.40 3740.06 2060.56 C 3794.23 1923.73 3640.20 1820.80 3640.20 1820.80 C 3640.20 1820.80 3485.46 1909.60 3381.12 1916.66 C 3276.79 1923.73 2957.19 1793.25 2957.19 2063.39 C 2815.88 2106.96 2820.59 2339.42 3192.71 2513.70" fill="#263238" fill-rule="nonzero" node-id="471" stroke="none" target-height="720.44995" target-width="978.3501" target-x="2815.88" target-y="1793.25"/><path d="M 2972.97 2073.99 C 2972.97 2073.99 2915.03 2028.06 2958.13 1887.69 C 2905.14 1914.07 2879.70 2057.50 2972.97 2073.99 Z" fill="#263238" fill-rule="nonzero" node-id="473" stroke="none" target-height="186.30005" target-width="93.27002" target-x="2879.7" target-y="1887.69"/><path d="M 3102.03 2601.08 C 3137.66 2643.67 3188.21 2671.05 3243.34 2677.63 C 3316.36 2685.40 3337.55 2618.04 3305.99 2556.10 C 3276.79 2500.52 3203.78 2429.39 3136.42 2450.35 C 3069.06 2471.31 3058.46 2548.09 3102.03 2601.08 Z" fill="#ffc3bd" fill-rule="nonzero" node-id="475" stroke="none" target-height="256.01" target-width="279.0901" target-x="3058.46" target-y="2429.39"/><path d="M 4212.98 5788.14 L 3460.50 5788.14 C 3392.90 5379.75 3338.50 5072.39 3338.50 5072.39 L 4113.59 5072.39 C 4113.59 5072.39 4157.16 5374.57 4212.98 5788.14 Z" fill="#263238" fill-rule="nonzero" node-id="477" stroke="none" target-height="715.75" target-width="874.48" target-x="3338.5" target-y="5072.39"/><path d="M 2964.73 5788.14 C 2947.77 5379.75 2935.05 5072.39 2935.05 5072.39 L 3694.84 5072.39 C 3694.84 5072.39 3698.61 5383.52 3700.26 5788.14 L 2964.73 5788.14 Z" fill="#263238" fill-rule="nonzero" node-id="479" stroke="none" target-height="715.75" target-width="765.20996" target-x="2935.05" target-y="5072.39"/><path d="M 3502.89 2376.40 C 3505.48 2394.06 3516.78 2407.25 3528.32 2406.07 C 3539.86 2404.90 3547.17 2389.35 3544.57 2371.92 C 3541.98 2354.49 3530.68 2341.07 3519.14 2342.25 C 3507.60 2343.43 3500.30 2358.73 3502.89 2376.40 Z" fill="#263238" fill-rule="nonzero" node-id="481" stroke="none" target-height="66.17993" target-width="46.869873" target-x="3500.3" target-y="2341.07"/><path d="M 3702.37 2355.20 C 3704.96 2372.86 3716.27 2386.05 3727.81 2384.64 C 3739.35 2383.23 3746.65 2368.15 3744.06 2350.72 C 3741.47 2333.30 3730.17 2319.87 3718.62 2321.05 C 3707.08 2322.23 3699.78 2336.83 3702.37 2355.20 Z" fill="#263238" fill-rule="nonzero" node-id="483" stroke="none" target-height="66.17993" target-width="46.869873" target-x="3699.78" target-y="2319.87"/><path d="M 3640.20 2370.27 C 3669.10 2421.87 3704.74 2469.39 3746.18 2511.59 C 3719.33 2544.09 3664.22 2536.55 3664.22 2536.55 L 3640.20 2370.27 Z" fill="#ed847e" fill-rule="nonzero" node-id="485" stroke="none" target-height="173.82007" target-width="105.97998" target-x="3640.2" target-y="2370.27"/><path d="M 3583.20 2590.72 C 3595.34 2592.01 3607.57 2592.01 3619.71 2590.72 C 3620.39 2590.66 3621.05 2590.47 3621.66 2590.15 C 3622.26 2589.83 3622.80 2589.40 3623.24 2588.87 C 3623.68 2588.35 3624.01 2587.74 3624.21 2587.09 C 3624.41 2586.43 3624.48 2585.75 3624.42 2585.07 C 3624.24 2583.67 3623.53 2582.40 3622.43 2581.52 C 3621.33 2580.64 3619.93 2580.22 3618.53 2580.36 C 3596.34 2583.18 3573.80 2580.87 3552.65 2573.60 C 3531.50 2566.33 3512.30 2554.30 3496.53 2538.43 C 3496.08 2537.91 3495.53 2537.48 3494.92 2537.16 C 3494.30 2536.85 3493.63 2536.66 3492.94 2536.60 C 3492.25 2536.55 3491.56 2536.63 3490.90 2536.84 C 3490.25 2537.06 3489.64 2537.40 3489.11 2537.84 C 3488.59 2538.29 3488.15 2538.84 3487.84 2539.46 C 3487.52 2540.07 3487.33 2540.74 3487.28 2541.43 C 3487.23 2542.12 3487.31 2542.81 3487.52 2543.47 C 3487.73 2544.13 3488.07 2544.74 3488.52 2545.26 C 3513.66 2571.21 3547.24 2587.33 3583.20 2590.72 Z" fill="#263238" fill-rule="nonzero" node-id="487" stroke="none" target-height="55.45996" target-width="137.25" target-x="3487.23" target-y="2536.55"/><path d="M 3430.82 2318.93 C 3432.83 2319.18 3434.87 2318.82 3436.68 2317.90 C 3438.49 2316.97 3439.97 2315.53 3440.95 2313.75 C 3446.99 2302.36 3455.73 2292.63 3466.41 2285.40 C 3477.08 2278.18 3489.37 2273.68 3502.18 2272.30 C 3504.95 2272.11 3507.54 2270.85 3509.39 2268.78 C 3511.24 2266.71 3512.20 2264.00 3512.07 2261.23 C 3512.01 2259.87 3511.69 2258.53 3511.11 2257.30 C 3510.53 2256.06 3509.72 2254.95 3508.71 2254.03 C 3507.70 2253.12 3506.52 2252.40 3505.24 2251.94 C 3503.96 2251.48 3502.60 2251.27 3501.24 2251.34 C 3484.91 2252.96 3469.23 2258.55 3455.56 2267.62 C 3441.89 2276.69 3430.65 2288.97 3422.81 2303.39 C 3422.11 2304.59 3421.65 2305.92 3421.47 2307.30 C 3421.29 2308.68 3421.39 2310.08 3421.76 2311.42 C 3422.14 2312.76 3422.78 2314.01 3423.65 2315.10 C 3424.51 2316.19 3425.59 2317.09 3426.82 2317.75 C 3428.02 2318.49 3429.40 2318.90 3430.82 2318.93 Z" fill="#263238" fill-rule="nonzero" node-id="489" stroke="none" target-height="67.90991" target-width="90.90991" target-x="3421.29" target-y="2251.27"/><path d="M 3777.03 2276.77 C 3779.53 2276.96 3782.03 2276.30 3784.10 2274.89 C 3786.33 2273.31 3787.87 2270.94 3788.39 2268.27 C 3788.92 2265.59 3788.39 2262.82 3786.93 2260.52 C 3777.98 2246.36 3765.84 2234.50 3751.49 2225.87 C 3737.13 2217.24 3720.96 2212.09 3704.26 2210.82 C 3701.53 2210.82 3698.90 2211.87 3696.93 2213.76 C 3694.95 2215.65 3693.78 2218.22 3693.66 2220.95 C 3693.66 2223.72 3694.74 2226.38 3696.68 2228.36 C 3698.62 2230.34 3701.25 2231.49 3704.02 2231.55 C 3717.32 2232.80 3730.15 2237.11 3741.51 2244.14 C 3752.86 2251.16 3762.44 2260.72 3769.50 2272.06 C 3770.36 2273.32 3771.48 2274.39 3772.77 2275.20 C 3774.07 2276.02 3775.52 2276.55 3777.03 2276.77 Z" fill="#263238" fill-rule="nonzero" node-id="491" stroke="none" target-height="66.13989" target-width="95.26001" target-x="3693.66" target-y="2210.82"/><path d="M 3025.73 3489.46 L 2973.44 3579.90 C 2955.85 3611.31 2938.66 3642.71 2921.86 3674.11 C 2887.95 3736.92 2855.44 3800.19 2824.36 3863.94 C 2793.74 3927.77 2764.53 3991.83 2738.39 4056.36 C 2725.91 4088.39 2713.19 4120.66 2702.36 4152.92 L 2685.63 4201.20 L 2671.74 4248.31 L 2668.21 4260.32 L 2666.32 4266.44 C 2666.32 4268.56 2666.32 4266.44 2666.32 4267.86 C 2666.32 4269.27 2666.32 4270.45 2664.67 4273.04 C 2663.71 4282.28 2663.71 4291.59 2664.67 4300.83 C 2667.62 4328.83 2673.47 4356.46 2682.10 4383.26 C 2702.78 4447.76 2727.96 4510.72 2757.47 4571.68 C 2817.05 4699.56 2889.59 4828.63 2960.96 4954.63 L 2830.71 5056.38 C 2775.13 5000.56 2725.20 4943.80 2676.21 4883.98 C 2627.23 4824.15 2582.01 4761.98 2537.49 4695.56 C 2492.15 4627.72 2452.75 4556.09 2419.73 4481.47 C 2400.91 4438.91 2386.39 4394.57 2376.40 4349.11 C 2370.54 4321.62 2367.54 4293.61 2367.45 4265.50 C 2367.26 4248.62 2368.52 4231.76 2371.21 4215.10 L 2373.10 4202.85 L 2374.75 4195.32 L 2377.81 4180.01 C 2393.07 4100.18 2413.77 4021.49 2439.75 3944.49 C 2464.72 3868.65 2493.92 3795.64 2525.01 3723.57 C 2556.10 3651.50 2590.25 3582.26 2626.75 3513.02 C 2645.12 3478.86 2663.73 3444.95 2683.28 3411.03 C 2702.83 3377.12 2722.14 3345.09 2745.46 3309.05 L 3025.73 3489.46 Z" fill="#ffc3bd" fill-rule="nonzero" node-id="493" stroke="none" target-height="1747.3298" target-width="658.47" target-x="2367.26" target-y="3309.05"/><path d="M 2801.04 3158.56 C 2593.78 3188.94 2380.16 3910.57 2380.16 3910.57 L 2826.24 4157.63 C 2826.24 4157.63 3006.88 3814.24 3093.08 3559.41 C 3183.29 3292.33 3023.13 3126.05 2801.04 3158.56 Z" fill="#429cfd" fill-rule="nonzero" node-id="495" stroke="none" target-height="1031.5798" target-width="803.1301" target-x="2380.16" target-y="3126.05"/><path d="M 2389.35 3808.83 L 2370.51 3914.81 L 2828.83 4167.05 L 2889.83 4079.68 L 2389.35 3808.83 Z" fill="#429cfd" fill-rule="nonzero" node-id="497" stroke="none" target-height="358.21973" target-width="519.32007" target-x="2370.51" target-y="3808.83"/><path d="M 2389.35 3808.83 L 2370.51 3914.81 L 2828.83 4167.05 L 2889.83 4079.68 L 2389.35 3808.83 Z" fill="#263238" fill-opacity="0.3" fill-rule="nonzero" group-id="29" node-id="501" stroke="none" target-height="358.21973" target-width="519.32007" target-x="2370.51" target-y="3808.83"/><path d="M 2901.61 4905.65 L 3120.64 4867.49 L 3008.30 5121.15 C 3008.30 5121.15 2808.10 5119.97 2817.29 5016.81 L 2901.61 4905.65 Z" fill="#ffc3bd" fill-rule="nonzero" node-id="504" stroke="none" target-height="253.65967" target-width="312.5398" target-x="2808.1" target-y="4867.49"/><path d="M 3284.33 4994.91 L 3181.17 5199.81 L 3008.30 5121.15 L 3120.64 4867.49 L 3284.33 4994.91 Z" fill="#ffc3bd" fill-rule="nonzero" node-id="506" stroke="none" target-height="332.31982" target-width="276.03003" target-x="3008.3" target-y="4867.49"/><path d="M 10134.70 5921.44 L 6959.62 5921.44 C 6948.71 5921.48 6937.92 5919.32 6927.87 5915.09 C 6917.83 5910.85 6908.74 5904.64 6901.15 5896.81 C 6893.56 5888.98 6887.63 5879.70 6883.72 5869.53 C 6879.80 5859.35 6877.98 5848.49 6878.36 5837.60 L 6953.49 3567.66 C 6954.51 3545.20 6964.08 3523.98 6980.24 3508.35 C 6996.40 3492.72 7017.92 3483.85 7040.40 3483.58 L 10215.20 3483.58 C 10226.10 3483.50 10237.00 3485.65 10247.10 3489.89 C 10257.10 3494.12 10266.20 3500.36 10273.80 3508.22 C 10281.40 3516.08 10287.40 3525.40 10291.20 3535.62 C 10295.10 3545.83 10296.90 3556.73 10296.50 3567.66 L 10221.60 5837.60 C 10220.70 5860.07 10211.10 5881.33 10194.90 5896.95 C 10178.70 5912.57 10157.20 5921.34 10134.70 5921.44 Z" fill="#429cfd" fill-rule="nonzero" node-id="508" stroke="none" target-height="2437.98" target-width="3418.9204" target-x="6877.98" target-y="3483.5"/><path d="M 10134.70 5921.44 L 6959.62 5921.44 C 6948.71 5921.48 6937.92 5919.32 6927.87 5915.09 C 6917.83 5910.85 6908.74 5904.64 6901.15 5896.81 C 6893.56 5888.98 6887.63 5879.70 6883.72 5869.53 C 6879.80 5859.35 6877.98 5848.49 6878.36 5837.60 L 6953.49 3567.66 C 6954.51 3545.20 6964.08 3523.98 6980.24 3508.35 C 6996.40 3492.72 7017.92 3483.85 7040.40 3483.58 L 10215.20 3483.58 C 10226.10 3483.50 10237.00 3485.65 10247.10 3489.89 C 10257.10 3494.12 10266.20 3500.36 10273.80 3508.22 C 10281.40 3516.08 10287.40 3525.40 10291.20 3535.62 C 10295.10 3545.83 10296.90 3556.73 10296.50 3567.66 L 10221.60 5837.60 C 10220.70 5860.07 10211.10 5881.33 10194.90 5896.95 C 10178.70 5912.57 10157.20 5921.34 10134.70 5921.44 Z" fill="#263238" fill-opacity="0.6" fill-rule="nonzero" group-id="30" node-id="512" stroke="none" target-height="2437.98" target-width="3418.9204" target-x="6877.98" target-y="3483.5"/><path d="M 10108.80 5921.45 L 6933.71 5921.45 C 6922.81 5921.48 6912.01 5919.32 6901.96 5915.09 C 6891.92 5910.86 6882.83 5904.64 6875.24 5896.81 C 6867.66 5888.98 6861.73 5879.70 6857.81 5869.53 C 6853.90 5859.36 6852.07 5848.50 6852.45 5837.60 L 6927.58 3567.66 C 6928.60 3545.20 6938.17 3523.98 6954.33 3508.35 C 6970.49 3492.72 6992.01 3483.86 7014.49 3483.58 L 10189.30 3483.58 C 10200.20 3483.54 10211.00 3485.71 10221.10 3489.96 C 10231.20 3494.20 10240.30 3500.44 10247.90 3508.30 C 10255.40 3516.15 10261.40 3525.46 10265.30 3535.66 C 10269.20 3545.86 10271.00 3556.74 10270.60 3567.66 L 10195.40 5837.60 C 10194.50 5860.04 10185.00 5881.26 10168.90 5896.87 C 10152.70 5912.48 10131.20 5921.28 10108.80 5921.45 Z" fill="#429cfd" fill-rule="nonzero" node-id="515" stroke="none" target-height="2437.94" target-width="3418.9302" target-x="6852.07" target-y="3483.54"/><path d="M 10067.80 5917.44 L 6233.27 5917.44 C 6214.41 5917.44 6195.93 5922.73 6179.94 5932.73 C 6163.95 5942.72 6151.09 5957.01 6142.83 5973.97 C 6140.71 5978.40 6139.76 5983.30 6140.06 5988.20 C 6140.35 5993.11 6141.90 5997.86 6144.53 6002.00 C 6147.17 6006.15 6150.82 6009.55 6155.14 6011.90 C 6159.45 6014.25 6164.30 6015.46 6169.21 6015.42 L 10131.80 6015.42 C 10136.80 6015.50 10141.60 6014.32 10146.00 6011.99 C 10150.30 6009.66 10154.00 6006.26 10156.70 6002.10 C 10159.40 5997.95 10160.90 5993.19 10161.20 5988.26 C 10161.50 5983.34 10160.60 5978.42 10158.40 5973.97 C 10150.10 5956.99 10137.20 5942.70 10121.20 5932.70 C 10105.20 5922.71 10086.70 5917.42 10067.80 5917.44 Z" fill="#429cfd" fill-rule="nonzero" node-id="517" stroke="none" target-height="98.08008" target-width="4021.7402" target-x="6139.76" target-y="5917.42"/><path d="M 10067.80 5917.44 L 9478.97 5917.44 C 9460.08 5917.42 9441.56 5922.71 9425.53 5932.70 C 9409.50 5942.70 9396.60 5956.99 9388.30 5973.97 C 9386.17 5978.42 9385.22 5983.34 9385.53 5988.26 C 9385.83 5993.19 9387.40 5997.95 9390.06 6002.10 C 9392.73 6006.26 9396.41 6009.66 9400.76 6011.99 C 9405.11 6014.32 9409.98 6015.50 9414.91 6015.42 L 10130.70 6015.42 C 10135.60 6015.50 10140.50 6014.32 10144.80 6011.99 C 10149.20 6009.66 10152.80 6006.26 10155.50 6002.10 C 10158.20 5997.95 10159.70 5993.19 10160.00 5988.26 C 10160.40 5983.34 10159.40 5978.42 10157.30 5973.97 C 10149.10 5957.17 10136.30 5942.99 10120.50 5933.01 C 10104.70 5923.03 10086.50 5917.64 10067.80 5917.44 Z" fill="#263238" fill-opacity="0.6" fill-rule="nonzero" group-id="31" node-id="521" stroke="none" target-height="98.08008" target-width="775.18066" target-x="9385.22" target-y="5917.42"/><path d="M 8062.32 5979.62 L 7266.26 5979.62 C 7256.81 5979.68 7247.76 5983.48 7241.10 5990.18 C 7234.44 5996.89 7230.70 6005.96 7230.70 6015.42 L 8098.12 6015.42 C 8098.12 6005.92 8094.35 5996.82 8087.63 5990.10 C 8080.92 5983.39 8071.81 5979.62 8062.32 5979.62 Z" fill="#000000" fill-opacity="0.2" fill-rule="nonzero" group-id="32" node-id="526" stroke="none" target-height="35.799805" target-width="867.4199" target-x="7230.7" target-y="5979.62"/><path d="M 6928.29 5755.40 L 6998.95 3649.86 C 6999.37 3641.11 7003.11 3632.85 7009.41 3626.76 C 7015.72 3620.68 7024.10 3617.23 7032.86 3617.12 L 10165.30 3617.12 C 10169.50 3617.08 10173.80 3617.91 10177.70 3619.56 C 10181.60 3621.21 10185.10 3623.64 10188.10 3626.70 C 10191.00 3629.76 10193.30 3633.40 10194.90 3637.38 C 10196.40 3641.36 10197.00 3645.60 10196.80 3649.86 L 10126.20 5755.40 C 10125.90 5764.15 10122.20 5772.45 10115.90 5778.55 C 10109.60 5784.65 10101.30 5788.09 10092.50 5788.14 L 6960.09 5788.14 C 6955.82 5788.18 6951.59 5787.35 6947.66 5785.70 C 6943.72 5784.06 6940.16 5781.63 6937.19 5778.57 C 6934.22 5775.51 6931.90 5771.88 6930.37 5767.90 C 6928.84 5763.92 6928.13 5759.67 6928.29 5755.40 Z" fill="#ffffff" fill-opacity="0.9" fill-rule="nonzero" group-id="33" node-id="531" stroke="none" target-height="2171.1" target-width="3268.87" target-x="6928.13" target-y="3617.08"/><path d="M 9155.13 5788.14 L 8723.42 5788.14 L 9221.08 3617.12 L 9652.79 3617.12 L 9155.13 5788.14 Z" fill="#ffffff" fill-rule="nonzero" node-id="534" stroke="none" target-height="2171.02" target-width="929.3701" target-x="8723.42" target-y="3617.12"/><path d="M 7280.63 5788.14 L 7125.19 5788.14 L 7622.84 3617.12 L 7778.05 3617.12 L 7280.63 5788.14 Z" fill="#ffffff" fill-rule="nonzero" node-id="536" stroke="none" target-height="2171.02" target-width="652.85986" target-x="7125.19" target-y="3617.12"/><path d="M 9509.12 5788.14 L 9353.68 5788.14 L 9851.33 3617.12 L 10006.80 3617.12 L 9509.12 5788.14 Z" fill="#ffffff" fill-rule="nonzero" node-id="538" stroke="none" target-height="2171.02" target-width="653.1201" target-x="9353.68" target-y="3617.12"/><path d="M 8624.27 3554.00 C 8623.69 3560.37 8620.77 3566.31 8616.07 3570.65 C 8611.38 3575.00 8605.24 3577.46 8598.84 3577.55 C 8592.59 3577.55 8586.60 3575.07 8582.18 3570.65 C 8577.76 3566.23 8575.28 3560.24 8575.28 3554.00 C 8575.76 3547.58 8578.65 3541.59 8583.37 3537.22 C 8588.09 3532.85 8594.29 3530.43 8600.72 3530.45 C 8606.97 3530.45 8612.96 3532.93 8617.37 3537.34 C 8621.79 3541.76 8624.27 3547.75 8624.27 3554.00 Z" fill="#000000" fill-opacity="0.4" fill-rule="nonzero" group-id="34" node-id="542" stroke="none" target-height="47.120117" target-width="48.989258" target-x="8575.28" target-y="3530.43"/><path d="M 8395.35 2545.27 C 8358.37 2706.36 8316.45 3001.47 8425.49 3108.86 C 8425.49 3108.86 8378.39 3242.17 8079.28 3242.17 C 7749.55 3242.17 7925.01 3108.86 7925.01 3108.86 C 8106.13 3066.00 8106.13 2932.70 8079.04 2807.63 L 8395.35 2545.27 Z" fill="#b55b52" fill-rule="nonzero" node-id="545" stroke="none" target-height="696.8999" target-width="675.9404" target-x="7749.55" target-y="2545.27"/><path d="M 8874.63 3310.47 C 8898.18 3346.50 8917.49 3378.06 8936.81 3412.45 C 8956.12 3446.83 8975.20 3480.28 8993.57 3514.43 C 9029.84 3583.20 9064.22 3653.15 9095.31 3724.98 C 9126.40 3796.82 9155.60 3870.06 9180.33 3945.90 C 9206.40 4022.90 9227.17 4101.59 9242.51 4181.42 L 9245.57 4196.73 L 9246.99 4204.27 L 9249.11 4216.51 C 9251.57 4233.20 9252.83 4250.05 9252.87 4266.92 C 9252.54 4295.01 9249.55 4323.00 9243.92 4350.53 C 9233.85 4395.99 9219.26 4440.33 9200.35 4482.89 C 9167.43 4557.55 9128.03 4629.19 9082.59 4696.97 C 9038.79 4762.68 8992.62 4824.86 8943.64 4885.39 C 8895.06 4945.41 8843.49 5002.95 8789.13 5057.79 L 8659.13 4956.05 C 8729.78 4830.04 8803.03 4700.98 8862.62 4573.09 C 8892.05 4512.13 8917.16 4449.17 8937.75 4384.68 C 8946.38 4357.87 8952.22 4330.25 8955.18 4302.24 C 8956.24 4293.01 8956.24 4283.69 8955.18 4274.45 C 8955.18 4271.86 8955.18 4269.51 8953.29 4269.27 L 8953.29 4267.86 L 8951.64 4261.73 L 8948.11 4249.72 L 8933.98 4202.62 L 8917.49 4154.34 C 8906.42 4122.07 8893.94 4089.80 8881.22 4057.77 C 8855.08 3993.24 8825.88 3929.18 8795.49 3865.35 C 8765.11 3801.53 8731.67 3738.41 8697.99 3675.52 C 8681.35 3644.12 8664.15 3612.72 8646.41 3581.32 L 8594.12 3491.11 L 8874.63 3310.47 Z" fill="#b65b52" fill-rule="nonzero" node-id="547" stroke="none" target-height="1747.3201" target-width="658.75" target-x="8594.12" target-y="3310.47"/><path d="M 8817.87 3158.56 C 9025.13 3188.94 9238.51 3910.58 9238.51 3910.58 L 8792.67 4157.64 C 8792.67 4157.64 8611.79 3815.43 8525.82 3559.42 C 8435.38 3292.34 8596.48 3126.06 8817.87 3158.56 Z" fill="#263238" fill-rule="nonzero" node-id="549" stroke="none" target-height="1031.5801" target-width="803.1299" target-x="8435.38" target-y="3126.06"/><path d="M 8682.92 3554.00 L 8649.24 3862.53 C 8682.92 3936.72 8715.89 4003.84 8741.56 4056.83 C 8751.22 3933.18 8750.98 3732.05 8682.92 3554.00 Z" fill="#000000" fill-opacity="0.3" fill-rule="nonzero" group-id="35" node-id="553" stroke="none" target-height="502.83008" target-width="101.97949" target-x="8649.24" target-y="3554"/><path d="M 9229.32 3808.83 L 9248.40 3914.82 L 8790.08 4167.06 L 8729.08 4079.68 L 9229.32 3808.83 Z" fill="#429cfd" fill-rule="nonzero" node-id="556" stroke="none" target-height="358.22998" target-width="519.3203" target-x="8729.08" target-y="3808.83"/><path d="M 9229.32 3808.83 L 9248.40 3914.82 L 8790.08 4167.06 L 8729.08 4079.68 L 9229.32 3808.83 Z" fill="#263238" fill-opacity="0.3" fill-rule="nonzero" group-id="36" node-id="560" stroke="none" target-height="358.22998" target-width="519.3203" target-x="8729.08" target-y="3808.83"/><path d="M 8717.30 4905.65 L 8498.03 4867.49 L 8610.61 5121.15 C 8610.61 5121.15 8810.57 5119.97 8801.38 5016.81 L 8717.30 4905.65 Z" fill="#b55b52" fill-rule="nonzero" node-id="563" stroke="none" target-height="253.65967" target-width="312.54004" target-x="8498.03" target-y="4867.49"/><path d="M 8334.58 4994.91 L 8437.50 5199.81 L 8610.61 5121.15 L 8498.03 4867.49 L 8334.58 4994.91 Z" fill="#b55b52" fill-rule="nonzero" node-id="565" stroke="none" target-height="332.31982" target-width="276.03027" target-x="8334.58" target-y="4867.49"/><path d="M 7583.74 3169.86 C 7583.74 3169.86 7301.12 3834.50 7504.84 5072.39 L 8682.44 5072.39 C 8696.81 4891.75 8613.67 4010.20 8817.63 3158.56 C 8688.14 3133.45 8557.15 3116.85 8425.49 3108.86 C 8258.80 3099.20 8091.70 3099.20 7925.01 3108.86 C 7809.85 3120.35 7695.75 3140.75 7583.74 3169.86 Z" fill="#263238" fill-rule="nonzero" node-id="567" stroke="none" target-height="1973.1902" target-width="1516.5098" target-x="7301.12" target-y="3099.2"/><path d="M 7457.74 3738.41 C 7440.62 3887.36 7431.90 4037.15 7431.60 4187.08 C 7591.75 4082.74 7648.75 3843.45 7671.36 3670.11 L 7457.74 3738.41 Z" fill="#000000" fill-opacity="0.3" fill-rule="nonzero" group-id="37" node-id="571" stroke="none" target-height="516.97" target-width="239.75977" target-x="7431.6" target-y="3670.11"/><path d="M 7743.43 3492.29 C 7698.44 3569.54 7652.99 3640.67 7605.41 3713.21 C 7557.84 3785.75 7509.08 3856.17 7457.98 3925.18 C 7355.32 4067.77 7242.78 4202.97 7121.18 4329.80 C 7056.69 4396.75 6986.65 4458.13 6911.81 4513.27 L 6881.19 4534.47 C 6868.00 4542.47 6854.34 4551.19 6841.62 4558.02 C 6817.08 4570.68 6791.66 4581.54 6765.55 4590.52 C 6719.00 4605.95 6671.37 4617.92 6623.06 4626.32 C 6533.84 4640.90 6443.56 4648.07 6353.15 4647.75 C 6309.11 4647.75 6265.07 4647.75 6221.50 4643.28 C 6177.93 4638.80 6134.83 4636.92 6089.61 4630.32 L 6089.61 4465.46 C 6168.98 4451.80 6251.41 4436.49 6330.07 4419.77 C 6369.64 4411.52 6408.97 4402.57 6447.83 4392.68 C 6486.69 4382.79 6523.67 4372.43 6559.00 4360.42 C 6592.76 4349.90 6625.67 4336.83 6657.44 4321.32 C 6670.50 4314.76 6683.16 4307.44 6695.36 4299.42 C 6701.25 4295.88 6704.78 4292.12 6709.49 4288.82 L 6729.75 4272.80 C 6787.33 4223.99 6841.25 4171.01 6891.08 4114.30 C 6996.75 3992.45 7095.58 3864.84 7187.13 3732.05 C 7234.23 3665.16 7279.69 3596.86 7325.38 3528.56 C 7371.07 3460.26 7415.11 3389.37 7457.03 3322.48 L 7743.43 3492.29 Z" fill="#b65b52" fill-rule="nonzero" node-id="574" stroke="none" target-height="1325.5898" target-width="1653.8203" target-x="6089.61" target-y="3322.48"/><path d="M 7852.47 3367.94 C 7876.02 3574.72 7414.87 4076.38 7414.87 4076.38 L 7050.05 3790.93 C 7147.66 3625.53 7255.75 3466.54 7373.66 3314.94 C 7563.02 3079.66 7826.33 3134.07 7852.47 3367.94 Z" fill="#263238" fill-rule="nonzero" node-id="576" stroke="none" target-height="996.72" target-width="825.9702" target-x="7050.05" target-y="3079.66"/><path d="M 7076.90 3695.07 L 7041.81 3796.82 L 7414.64 4103.00 L 7488.59 4026.45 L 7076.90 3695.07 Z" fill="#429cfd" fill-rule="nonzero" node-id="578" stroke="none" target-height="407.92993" target-width="446.7798" target-x="7041.81" target-y="3695.07"/><path d="M 7076.90 3695.07 L 7041.81 3796.82 L 7414.64 4103.00 L 7488.59 4026.45 L 7076.90 3695.07 Z" fill="#263238" fill-opacity="0.3" fill-rule="nonzero" group-id="38" node-id="582" stroke="none" target-height="407.92993" target-width="446.7798" target-x="7041.81" target-y="3695.07"/><path d="M 6089.60 4466.17 L 5827.00 4469.94 L 5932.75 4715.82 C 5965.25 4726.42 6110.33 4674.84 6183.34 4594.29 L 6089.60 4466.17 Z" fill="#b55b52" fill-rule="nonzero" node-id="585" stroke="none" target-height="260.25" target-width="356.33984" target-x="5827" target-y="4466.17"/><path d="M 5645.88 4597.35 L 5789.32 4777.29 L 5932.75 4715.58 L 5827.00 4469.93 L 5645.88 4597.35 Z" fill="#b55b52" fill-rule="nonzero" node-id="587" stroke="none" target-height="307.35986" target-width="286.87012" target-x="5645.88" target-y="4469.93"/><path d="M 7851.06 2355.20 C 7848.47 2372.87 7837.16 2386.06 7825.62 2384.64 C 7814.08 2383.23 7806.78 2368.16 7809.14 2350.73 C 7811.49 2333.30 7823.27 2319.87 7834.81 2321.05 C 7846.35 2322.23 7853.65 2336.83 7851.06 2355.20 Z" fill="#263238" fill-rule="nonzero" node-id="589" stroke="none" target-height="66.18994" target-width="46.870117" target-x="7806.78" target-y="2319.87"/><path d="M 7856.00 2370.27 C 7827.07 2421.91 7791.35 2469.44 7749.79 2511.59 C 7776.87 2544.09 7831.98 2536.55 7831.98 2536.55 L 7856.00 2370.27 Z" fill="#a02724" fill-rule="nonzero" node-id="591" stroke="none" target-height="173.82007" target-width="106.20996" target-x="7749.79" target-y="2370.27"/><path d="M 7826.09 2500.28 C 7786.76 2500.28 7751.20 2443.52 7744.84 2370.98 C 7738.83 2330.65 7748.62 2289.57 7772.16 2256.28 C 7776.19 2251.41 7781.22 2247.46 7786.91 2244.70 C 7792.60 2241.94 7798.81 2240.43 7805.13 2240.27 C 7844.46 2240.27 7880.03 2296.79 7886.39 2369.33 C 7892.64 2409.67 7883.02 2450.87 7859.54 2484.26 C 7855.46 2489.09 7850.43 2493.00 7844.75 2495.76 C 7839.07 2498.52 7832.87 2500.06 7826.57 2500.28 L 7826.09 2500.28 Z M 7804.90 2252.04 C 7800.35 2252.30 7795.91 2253.50 7791.85 2255.56 C 7787.80 2257.63 7784.22 2260.52 7781.35 2264.05 C 7760.30 2295.10 7751.88 2333.00 7757.79 2370.04 C 7763.45 2434.33 7795.24 2487.80 7828.45 2487.80 C 7833.01 2487.50 7837.46 2486.26 7841.51 2484.15 C 7845.57 2482.04 7849.14 2479.11 7852.00 2475.55 C 7873.17 2444.64 7881.60 2406.77 7875.55 2369.80 C 7868.72 2306.21 7836.93 2252.04 7804.90 2252.04 Z" fill="#263238" fill-rule="nonzero" node-id="593" stroke="none" target-height="260.01" target-width="153.81006" target-x="7738.83" target-y="2240.27"/><path d="M 7913.47 2276.77 C 7915.90 2276.97 7918.32 2276.30 7920.30 2274.89 C 7921.45 2274.15 7922.44 2273.19 7923.21 2272.07 C 7923.99 2270.94 7924.53 2269.68 7924.82 2268.34 C 7925.10 2267.01 7925.12 2265.63 7924.87 2264.29 C 7924.62 2262.95 7924.11 2261.67 7923.36 2260.52 C 7914.41 2246.37 7902.28 2234.50 7887.92 2225.87 C 7873.57 2217.24 7857.40 2212.09 7840.70 2210.83 C 7837.97 2210.83 7835.34 2211.88 7833.36 2213.76 C 7831.39 2215.65 7830.22 2218.23 7830.10 2220.96 C 7830.10 2223.73 7831.18 2226.39 7833.12 2228.37 C 7835.06 2230.35 7837.69 2231.49 7840.46 2231.55 C 7853.76 2232.81 7866.59 2237.11 7877.94 2244.14 C 7889.30 2251.17 7898.88 2260.72 7905.94 2272.06 C 7906.80 2273.33 7907.91 2274.40 7909.21 2275.21 C 7910.51 2276.02 7911.96 2276.55 7913.47 2276.77 Z" fill="#263238" fill-rule="nonzero" node-id="595" stroke="none" target-height="66.13989" target-width="95.02002" target-x="7830.1" target-y="2210.83"/><path d="M 8453.52 2352.14 C 8408.77 2566.70 8393.70 2694.11 8267.93 2792.80 C 8227.47 2825.30 8178.90 2846.14 8127.47 2853.05 C 8076.03 2859.95 8023.68 2852.67 7976.09 2831.99 C 7928.49 2811.31 7887.45 2778.01 7857.40 2735.69 C 7827.35 2693.38 7809.44 2643.65 7805.60 2591.90 C 7787.23 2392.88 7863.31 2075.64 8088.23 2012.99 C 8136.49 1998.27 8187.78 1996.48 8236.95 2007.80 C 8286.12 2019.12 8331.47 2043.14 8368.44 2077.47 C 8405.42 2111.80 8432.74 2155.24 8447.67 2203.44 C 8462.60 2251.64 8464.62 2302.91 8453.52 2352.14 Z" fill="#b55b52" fill-rule="nonzero" node-id="597" stroke="none" target-height="863.47" target-width="677.39014" target-x="7787.23" target-y="1996.48"/><path d="M 8746.03 5788.14 C 8757.07 5547.85 8736.08 5307.15 8683.62 5072.39 L 7923.83 5072.39 C 7982.83 5306.36 8012.03 5546.85 8010.74 5788.14 L 8746.03 5788.14 Z" fill="#429cfd" fill-rule="nonzero" node-id="599" stroke="none" target-height="715.75" target-width="833.24023" target-x="7923.83" target-y="5072.39"/><path d="M 8746.03 5788.14 C 8757.07 5547.85 8736.08 5307.15 8683.62 5072.39 L 7923.83 5072.39 C 7982.83 5306.36 8012.03 5546.85 8010.74 5788.14 L 8746.03 5788.14 Z" fill="#ffffff" fill-opacity="0.3" fill-rule="nonzero" group-id="39" node-id="603" stroke="none" target-height="715.75" target-width="833.24023" target-x="7923.83" target-y="5072.39"/><path d="M 7988.13 2416.67 C 7946.21 2395.71 7893.92 2186.33 7908.29 2111.91 C 7922.66 2037.48 8091.52 1957.41 8257.57 1987.55 C 8423.61 2017.70 8494.97 2075.87 8527.24 2227.08 C 8560.44 2383.93 8439.39 2645.12 8379.57 2665.38 C 8344.11 2677.94 8306.38 2682.80 8268.89 2679.63 C 8231.41 2676.46 8195.03 2665.34 8162.18 2647.01 C 8108.72 2614.27 8080.93 2373.57 7988.13 2416.67 Z" fill="#263238" fill-rule="nonzero" node-id="606" stroke="none" target-height="725.39" target-width="666.5205" target-x="7893.92" target-y="1957.41"/><path d="M 7944.09 2187.04 C 7863.07 2191.75 7785.82 2062.69 7860.24 1947.52 C 7881.62 1914.69 7912.01 1888.72 7947.76 1872.72 C 7983.52 1856.72 8023.13 1851.37 8061.85 1857.31 C 8061.85 1857.31 8027.93 1923.49 8140.98 1909.60 C 8254.03 1895.70 8464.59 1927.26 8538.07 2006.40 C 8628.98 2103.90 8574.10 2295.61 8437.27 2248.51 C 8300.43 2201.41 7944.09 2187.04 7944.09 2187.04 Z" fill="#263238" fill-rule="nonzero" node-id="608" stroke="none" target-height="444.2401" target-width="843.16064" target-x="7785.82" target-y="1851.37"/><path d="M 7922.42 2190.34 C 7905.48 2189.53 7888.90 2185.12 7873.79 2177.40 C 7858.68 2169.69 7845.39 2158.84 7834.81 2145.59 C 7813.64 2120.28 7799.93 2089.60 7795.19 2056.95 C 7790.45 2024.31 7794.87 1990.98 7807.96 1960.70 C 7808.25 1959.98 7808.69 1959.32 7809.24 1958.76 C 7809.79 1958.20 7810.44 1957.75 7811.16 1957.45 C 7811.88 1957.14 7812.66 1956.98 7813.44 1956.97 C 7814.23 1956.97 7815.00 1957.11 7815.73 1957.41 C 7816.46 1957.70 7817.12 1958.14 7817.68 1958.69 C 7818.24 1959.23 7818.68 1959.89 7818.99 1960.61 C 7819.29 1961.33 7819.46 1962.11 7819.46 1962.89 C 7819.47 1963.68 7819.32 1964.45 7819.03 1965.18 C 7806.60 1993.39 7802.33 2024.52 7806.70 2055.04 C 7811.07 2085.55 7823.91 2114.23 7843.76 2137.82 C 7854.66 2152.42 7869.36 2163.76 7886.27 2170.57 C 7903.18 2177.38 7921.63 2179.41 7939.61 2176.44 C 7941.11 2176.14 7942.66 2176.41 7943.97 2177.20 C 7945.27 2177.98 7946.24 2179.22 7946.68 2180.68 C 7947.04 2182.21 7946.81 2183.82 7946.02 2185.18 C 7945.23 2186.54 7943.95 2187.54 7942.44 2187.98 C 7935.89 2189.58 7929.17 2190.37 7922.42 2190.34 Z" fill="#263238" fill-rule="nonzero" node-id="610" stroke="none" target-height="233.40015" target-width="156.58984" target-x="7790.45" target-y="1956.97"/><path d="M 8121.20 2389.59 C 8124.64 2445.22 8106.70 2500.07 8071.03 2542.91 C 8023.93 2598.73 7961.05 2565.05 7941.97 2497.93 C 7924.78 2437.40 7928.78 2335.65 7992.14 2304.33 C 8055.49 2273.01 8116.25 2321.52 8121.20 2389.59 Z" fill="#b55b52" fill-rule="nonzero" node-id="612" stroke="none" target-height="325.71997" target-width="199.86035" target-x="7924.78" target-y="2273.01"/><path d="M 7405.93 5788.14 L 8250.26 5788.14 C 8291.11 5551.85 8301.17 5311.27 8280.18 5072.39 L 7505.32 5072.39 C 7505.32 5072.39 7461.74 5374.57 7405.93 5788.14 Z" fill="#429cfd" fill-rule="nonzero" node-id="614" stroke="none" target-height="715.75" target-width="895.23975" target-x="7405.93" target-y="5072.39"/><path d="M 7405.93 5788.14 L 8250.26 5788.14 C 8291.11 5551.85 8301.17 5311.27 8280.18 5072.39 L 7505.32 5072.39 C 7505.32 5072.39 7461.74 5374.57 7405.93 5788.14 Z" fill="#ffffff" fill-opacity="0.3" fill-rule="nonzero" group-id="40" node-id="618" stroke="none" target-height="715.75" target-width="895.23975" target-x="7405.93" target-y="5072.39"/></svg>